<?xml version="1.0" encoding="UTF-8"?>
<svg version="1.1" xmlns="http://www.w3.org/2000/svg" width="900" height="300">
<path d="M0 0 C297 0 594 0 900 0 C900 99 900 198 900 300 C603 300 306 300 0 300 C0 201 0 102 0 0 Z " fill="#62E5EF" transform="translate(0,0)"/>
<path d="M0 0 C2.18399388 1.18779322 2.18399388 1.18779322 5.46875 2.47265625 C9.93611169 4.46701415 14.89421551 6.75993743 18.24072266 10.43017578 C20.43882393 12.47175784 22.74185937 13.63281499 25.4140625 14.99609375 C26.49171875 15.55039062 27.569375 16.1046875 28.6796875 16.67578125 C29.80632812 17.248125 30.93296875 17.82046875 32.09375 18.41015625 C34.30530219 19.54176824 36.51625023 20.6745618 38.7265625 21.80859375 C39.78391602 22.3509668 40.84126953 22.89333984 41.93066406 23.45214844 C45.98893808 25.56672966 49.98956382 27.77579869 53.96875 30.03515625 C53.96875 30.69515625 53.96875 31.35515625 53.96875 32.03515625 C55.3609375 32.22078125 55.3609375 32.22078125 56.78125 32.41015625 C59.96875 33.03515625 59.96875 33.03515625 62.96875 35.03515625 C62.96875 35.69515625 62.96875 36.35515625 62.96875 37.03515625 C64.19271484 37.16857422 64.19271484 37.16857422 65.44140625 37.3046875 C69.78041481 38.20324188 73.42011342 39.83003437 77.40625 41.72265625 C78.13134766 42.04943359 78.85644531 42.37621094 79.60351562 42.71289062 C84.57326849 45.0481833 89.3767419 47.79018538 92.96875 52.03515625 C92.96875 53.02515625 92.96875 54.01515625 92.96875 55.03515625 C94.61875 55.03515625 96.26875 55.03515625 97.96875 55.03515625 C94.8199898 59.75829655 89.94972269 61.5099483 84.96875 64.03515625 C84.00324219 64.53015625 83.03773438 65.02515625 82.04296875 65.53515625 C75.73056516 68.60841498 70.96793403 70.3965806 64.03125 68.03515625 C63.350625 67.70515625 62.67 67.37515625 61.96875 67.03515625 C61.96875 66.37515625 61.96875 65.71515625 61.96875 65.03515625 C61.411875 64.865 60.855 64.69484375 60.28125 64.51953125 C54.87284391 62.80199688 49.98812104 60.6817337 44.96875 58.03515625 C44.96875 57.37515625 44.96875 56.71515625 44.96875 56.03515625 C43.834375 55.74640625 42.7 55.45765625 41.53125 55.16015625 C40.355625 54.78890625 39.18 54.41765625 37.96875 54.03515625 C37.63875 53.37515625 37.30875 52.71515625 36.96875 52.03515625 C35.32443904 51.29616375 33.67559048 50.56561373 32.00537109 49.88720703 C28.51176453 48.42560467 25.1587067 46.68199818 21.78125 44.97265625 C21.08322266 44.62138672 20.38519531 44.27011719 19.66601562 43.90820312 C18.33893977 43.24024582 17.01225227 42.57151615 15.68603516 41.90185547 C13.78276042 40.94128889 11.87659411 39.98661339 9.96875 39.03515625 C11.67232543 45.70749336 13.64867974 52.12711478 16.19921875 58.52734375 C17.00849359 61.16467597 17.11123925 63.29346649 16.96875 66.03515625 C17.773125 66.26203125 18.5775 66.48890625 19.40625 66.72265625 C20.251875 67.15578125 21.0975 67.58890625 21.96875 68.03515625 C22.62890625 70.6171875 22.62890625 70.6171875 22.96875 73.03515625 C16.20280981 73.1489758 9.68037938 72.91536994 2.96875 72.03515625 C2.96875 71.37515625 2.96875 70.71515625 2.96875 70.03515625 C1.85757813 69.97457031 0.74640625 69.91398437 -0.3984375 69.8515625 C-23.5030506 68.56335565 -23.5030506 68.56335565 -25.03125 67.03515625 C-26.66191766 66.80801621 -28.30101003 66.64060539 -29.94140625 66.5 C-30.93076172 66.41298828 -31.92011719 66.32597656 -32.93945312 66.23632812 C-33.98037109 66.14931641 -35.02128906 66.06230469 -36.09375 65.97265625 C-37.13853516 65.88177734 -38.18332031 65.79089844 -39.25976562 65.69726562 C-41.8499415 65.47254717 -44.44040767 65.25203315 -47.03125 65.03515625 C-41.85388878 70.38546415 -34.85639624 73.27605458 -28.03125 76.03515625 C-28.03125 76.69515625 -28.03125 77.35515625 -28.03125 78.03515625 C-26.38125 78.36515625 -24.73125 78.69515625 -23.03125 79.03515625 C-23.03125 79.69515625 -23.03125 80.35515625 -23.03125 81.03515625 C-22.37769531 81.10992187 -21.72414063 81.1846875 -21.05078125 81.26171875 C-16.89238079 82.32687178 -13.45502469 84.33335273 -9.71875 86.41015625 C-5.42173017 88.7909894 -1.26470775 91.02568053 3.38671875 92.63671875 C6.96875 94.03515625 6.96875 94.03515625 8.96875 97.03515625 C9.95875 97.36515625 10.94875 97.69515625 11.96875 98.03515625 C12.29875 99.68515625 12.62875 101.33515625 12.96875 103.03515625 C8.00781272 105.30891917 3.29062227 106.82139591 -2.03125 108.03515625 C-2.03125 108.69515625 -2.03125 109.35515625 -2.03125 110.03515625 C-3.68125 110.36515625 -5.33125 110.69515625 -7.03125 111.03515625 C-7.03125 111.69515625 -7.03125 112.35515625 -7.03125 113.03515625 C-14.23761535 113.69028037 -17.99904826 111.75363678 -24.03125 108.03515625 C-30.17290609 104.53705583 -36.40498421 101.20719482 -42.65625 97.91015625 C-43.46320313 97.48089844 -44.27015625 97.05164063 -45.1015625 96.609375 C-49.6727455 94.19763072 -54.24910366 91.9967337 -59.03125 90.03515625 C-59.03125 89.37515625 -59.03125 88.71515625 -59.03125 88.03515625 C-59.98 87.80828125 -60.92875 87.58140625 -61.90625 87.34765625 C-66.92752504 85.93510044 -71.43539173 83.45792258 -76.03125 81.03515625 C-76.03125 80.37515625 -76.03125 79.71515625 -76.03125 79.03515625 C-77.2378125 78.84953125 -77.2378125 78.84953125 -78.46875 78.66015625 C-79.314375 78.45390625 -80.16 78.24765625 -81.03125 78.03515625 C-81.36125 77.37515625 -81.69125 76.71515625 -82.03125 76.03515625 C-84.18913312 75.08947042 -86.38337122 74.2256358 -88.59375 73.41015625 C-89.79128906 72.96414062 -90.98882812 72.518125 -92.22265625 72.05859375 C-93.14949219 71.72085938 -94.07632813 71.383125 -95.03125 71.03515625 C-95.03125 70.37515625 -95.03125 69.71515625 -95.03125 69.03515625 C-96.02511719 68.79796875 -97.01898438 68.56078125 -98.04296875 68.31640625 C-102.4098926 67.06714272 -106.00946751 64.92347549 -109.84375 62.53515625 C-110.84438477 61.92994141 -110.84438477 61.92994141 -111.86523438 61.3125 C-114.4863397 59.70968484 -116.85125008 58.21515617 -119.03125 56.03515625 C-119.03125 53.66015625 -119.03125 53.66015625 -118.03125 51.03515625 C-114.18092219 47.81162599 -111.01082189 46.50940119 -106.03125 46.03515625 C-106.03125 45.37515625 -106.03125 44.71515625 -106.03125 44.03515625 C-105.16242188 43.60589844 -104.29359375 43.17664062 -103.3984375 42.734375 C-101.28217902 41.66642553 -99.18034771 40.5688618 -97.1015625 39.4296875 C-91.11782528 36.21561114 -86.85488344 34.13392164 -80.03125 35.03515625 C-79.70125 35.36515625 -79.37125 35.69515625 -79.03125 36.03515625 C-76.91356246 36.32306679 -74.78768454 36.55113449 -72.66015625 36.75390625 C-71.36400391 36.88152344 -70.06785156 37.00914063 -68.73242188 37.140625 C-67.35290893 37.27259977 -65.97335096 37.40410468 -64.59375 37.53515625 C-61.90705784 37.79103169 -59.22106319 38.05221868 -56.53515625 38.31640625 C-54.73800171 38.4875293 -54.73800171 38.4875293 -52.90454102 38.66210938 C-50.03125 39.03515625 -50.03125 39.03515625 -48.03125 40.03515625 C-41.00656479 41.05486862 -34.12123119 41.14312551 -27.03125 41.03515625 C-29.35041626 32.3634911 -32.35854002 25.01979277 -36.73828125 17.2265625 C-38.23612034 13.52947931 -38.37203148 11.7808315 -37.03125 8.03515625 C-35.02734375 6.53125 -35.02734375 6.53125 -32.46875 5.47265625 C-29.04361266 3.95797355 -25.90616039 2.41481167 -22.78125 0.34765625 C-14.59585317 -4.85228523 -8.41188925 -4.51330212 0 0 Z " fill="#545959" transform="translate(242.03125,19.96484375)"/>
<path d="M0 0 C1.010625 0.433125 2.02125 0.86625 3.0625 1.3125 C10.13220942 5.37382243 14.37865501 13.31037267 16.98046875 20.8359375 C19.49035073 30.19202339 19.29084497 39.40211593 19 49 C18.34 49 17.68 49 17 49 C17.04640625 49.53625 17.0928125 50.0725 17.140625 50.625 C17.64998056 61.6852921 14.22159826 72.86816419 10 83 C9.34 83 8.68 83 8 83 C7.89558594 83.71542969 7.79117188 84.43085938 7.68359375 85.16796875 C6.92477733 88.31163677 5.73506294 90.55215773 4.0625 93.3125 C3.53785156 94.19550781 3.01320313 95.07851562 2.47265625 95.98828125 C1.98667969 96.65214844 1.50070312 97.31601563 1 98 C0.34 98 -0.32 98 -1 98 C-1.24878906 98.56332031 -1.49757813 99.12664062 -1.75390625 99.70703125 C-9.41928819 113.81229519 -25.98971681 124.13221412 -40 131 C-40.66 131 -41.32 131 -42 131 C-42 131.66 -42 132.32 -42 133 C-45.01324195 134.50662097 -47.68286377 134.17770373 -51 134 C-54.77170957 130.22829043 -53.41385156 123.77716929 -53.4375 118.6875 C-53.47037109 117.45064453 -53.50324219 116.21378906 -53.53710938 114.93945312 C-53.59115309 105.8453691 -53.59115309 105.8453691 -50.7109375 101.7265625 C-47.32670806 99.57118871 -44.88807589 98.8386046 -41 98 C-41 97.34 -41 96.68 -41 96 C-38.35261084 94.5393715 -37.10551666 94 -34 94 C-34 93.34 -34 92.68 -34 92 C-32.90599437 91.20547077 -31.7718176 90.46619439 -30.625 89.75 C-21.28483736 82.96924135 -14.0568511 71.17534448 -11.55078125 59.99609375 C-10.26722079 51.74463365 -10.75956886 43.21785628 -12 35 C-13.485 34.505 -13.485 34.505 -15 34 C-16.01866229 32.34467377 -17.01810813 30.67739862 -18 29 C-22.54435132 25.97043245 -26.6743754 26.29114273 -32 27 C-36.2718947 28.45426202 -40.19233151 30.41400439 -44.1875 32.5 C-45.23486328 33.02464844 -46.28222656 33.54929688 -47.36132812 34.08984375 C-49.91809311 35.37406361 -52.4629958 36.67729114 -55 38 C-54.98588074 39.26231949 -54.97176147 40.52463898 -54.95721436 41.82521057 C-54.83191466 53.72854076 -54.76981947 65.63075166 -54.76940536 77.53476048 C-54.76716631 83.65484712 -54.74275943 89.77316361 -54.66748047 95.89282227 C-54.59562986 101.80035861 -54.58228601 107.70541195 -54.60929108 113.6132946 C-54.60934682 115.8655969 -54.58841318 118.11800174 -54.5460434 120.36990547 C-54.23365571 138.04510296 -54.23365571 138.04510296 -58.62414551 142.90426636 C-61.72887263 144.74809253 -64.56021777 145.9355018 -68 147 C-69.08785797 147.56268333 -69.08785797 147.56268333 -70.19769287 148.13673401 C-72 149 -72 149 -75 149 C-75.33 149.99 -75.66 150.98 -76 152 C-79.3 152 -82.6 152 -86 152 C-86.13885391 134.98887397 -86.24594631 117.97797402 -86.31087303 100.96641159 C-86.34182011 93.0677436 -86.38401616 85.16943403 -86.45263672 77.27099609 C-86.51241357 70.3872187 -86.55114298 63.50370083 -86.56453097 56.61967111 C-86.57235796 52.97398265 -86.59076853 49.32903672 -86.63438034 45.68358612 C-86.6826575 41.61521887 -86.68394104 37.54814484 -86.68115234 33.47949219 C-86.702724 32.26892654 -86.72429565 31.0583609 -86.746521 29.81111145 C-86.72376339 26.75463138 -86.65680395 23.98475774 -86 21 C-82.84895387 17.93184334 -81.37988179 17 -77 17 C-77 16.34 -77 15.68 -77 15 C-76.18660156 14.59910156 -75.37320313 14.19820312 -74.53515625 13.78515625 C-66.9159373 10.0055437 -59.36683859 6.11464439 -51.86352539 2.10961914 C-34.58591126 -7.10606815 -17.85212135 -9.52113139 0 0 Z " fill="#222729" transform="translate(322,121)"/>
<path d="M0 0 C2.00720923 0.28674418 4.0085944 0.61866701 6 1 C6.33 1.99 6.66 2.98 7 4 C8.81082574 4.58787247 8.81082574 4.58787247 11 4.8125 C16.64546224 5.87886509 20.39965967 8.71404262 25 12 C28.84560697 14.39385173 32.73403336 16.44873941 37 18 C37 18.66 37 19.32 37 20 C39.97 20.99 42.94 21.98 46 23 C46 23.66 46 24.32 46 25 C46.9075 25.185625 47.815 25.37125 48.75 25.5625 C53.46827877 26.90923426 57.37096702 29.48186454 61.546875 32 C65.35677311 34.20663782 69.23877462 36.18221789 73.1875 38.125 C84.750569 43.82975539 84.750569 43.82975539 90 47 C91.01900391 47.50080078 92.03800781 48.00160156 93.08789062 48.51757812 C96 51 96 51 96.52853394 52.86676025 C96.69561693 55.23959942 96.6743713 57.54471687 96.5859375 59.921875 C96.57744781 60.78186096 96.56895813 61.64184692 96.56021118 62.52789307 C96.52667054 65.26987962 96.4513951 68.00890538 96.375 70.75 C96.34490102 72.61063455 96.31752509 74.47131529 96.29296875 76.33203125 C96.2268776 80.88915852 96.1233553 85.44407766 96 90 C94.56646209 90.79697545 93.13285492 91.59382631 91.69921875 92.390625 C90.90088623 92.83438477 90.10255371 93.27814453 89.2800293 93.73535156 C84.45717525 96.41041142 80.52812056 98.34189041 75 99 C76.91211788 105.45339784 79.8849171 109.69906995 84.2578125 114.80078125 C86 117 86 117 87 120 C87.98609379 121.01371546 88.98776149 122.01239016 90 123 C90.93375626 124.32830116 91.82950888 125.68404581 92.6875 127.0625 C93.12449219 127.75472656 93.56148438 128.44695312 94.01171875 129.16015625 C95 131 95 131 95 133 C95.66 133 96.32 133 97 133 C97 149.5 97 166 97 183 C94.03 182.67 91.06 182.34 88 182 C88 181.34 88 180.68 88 180 C87.16210938 179.76023437 86.32421875 179.52046875 85.4609375 179.2734375 C81.49367878 177.81370122 78.19331878 175.85860412 74.625 173.625 C65.67107898 168.092067 65.67107898 168.092067 56 164 C56 163.34 56 162.68 56 162 C53.03 161.01 50.06 160.02 47 159 C47 158.34 47 157.68 47 157 C45.7934375 156.6596875 45.7934375 156.6596875 44.5625 156.3125 C41.74710746 155.27525012 39.45073035 154.21595247 36.86328125 152.7578125 C36.07139404 152.31187744 35.27950684 151.86594238 34.46362305 151.40649414 C30.50492227 149.146453 26.56290565 146.85853746 22.625 144.5625 C17.45273247 141.55336296 12.27790196 138.57147209 7 135.75 C-6.51694915 128.48305085 -6.51694915 128.48305085 -10 125 C-10.25342626 120.88129085 -10.1852282 116.75058067 -10.1875 112.625 C-10.19974609 111.46226562 -10.21199219 110.29953125 -10.22460938 109.1015625 C-10.22654297 107.9878125 -10.22847656 106.8740625 -10.23046875 105.7265625 C-10.23457764 104.70127441 -10.23868652 103.67598633 -10.24291992 102.61962891 C-10 100 -10 100 -8 97 C2.03223478 97.81342444 11.41794914 104.16948394 20 109 C20 109.66 20 110.32 20 111 C20.58120605 111.12761719 21.16241211 111.25523437 21.76123047 111.38671875 C23.96609905 111.99071328 25.78613385 112.778678 27.8203125 113.8125 C28.52027344 114.16570312 29.22023437 114.51890625 29.94140625 114.8828125 C30.66199219 115.25148438 31.38257813 115.62015625 32.125 116 C32.85332031 116.36867188 33.58164063 116.73734375 34.33203125 117.1171875 C36.22299061 118.07490074 38.11165122 119.03714963 40 120 C40.99 120.495 40.99 120.495 42 121 C42 121.66 42 122.32 42 123 C42.56847656 123.17015625 43.13695312 123.3403125 43.72265625 123.515625 C48.9322114 125.15067737 53.35363141 127.13309172 58 130 C58 130.66 58 131.32 58 132 C59.65 132.33 61.3 132.66 63 133 C62.505 132.0925 62.01 131.185 61.5 130.25 C60 127 60 127 60 123 C59.09894531 122.89945313 59.09894531 122.89945313 58.1796875 122.796875 C55.12970201 121.68182654 54.61158024 120.08878034 53.125 117.25 C49.08269139 110.20597708 44.93967227 107.39125513 37.7890625 103.859375 C36.7057666 103.32280273 35.6224707 102.78623047 34.50634766 102.23339844 C33.67925293 101.82637695 32.8521582 101.41935547 32 101 C31.97534254 96.8882744 31.95716041 92.77657722 31.94506836 88.66479492 C31.9400292 87.26504772 31.93319784 85.8653058 31.92456055 84.46557617 C31.9124768 82.45754223 31.90730193 80.44947043 31.90234375 78.44140625 C31.89710693 77.23170166 31.89187012 76.02199707 31.88647461 74.77563477 C32 72 32 72 33 71 C36.93090273 70.53203539 39.19435656 70.93944899 42.4375 73.0625 C45.09125531 74.67556695 45.9981899 74.99993038 49.25 75.125 C53.76693841 73.76991848 57.50294571 71.67772077 61.546875 69.27734375 C64 68 64 68 67 68 C67 67.01 67 66.02 67 65 C66.41863281 64.70996094 65.83726562 64.41992188 65.23828125 64.12109375 C63.85854501 63.43002167 62.48054579 62.73545322 61.10546875 62.03515625 C56.79797177 59.85070259 52.45828071 57.85761696 48 56 C48 55.34 48 54.68 48 54 C47.030625 53.773125 46.06125 53.54625 45.0625 53.3125 C39.18523278 51.63498041 34.03421859 48.42828114 29.0625 44.9375 C25.59553673 42.74411507 22.12035428 41.40559531 18.26953125 40.02734375 C15.91944823 38.96353681 14.78374799 37.81298976 13 36 C10.69011685 35.25613932 8.35684056 34.57809297 6 34 C6 33.34 6 32.68 6 32 C3.69 31.34 1.38 30.68 -1 30 C-1.02465746 25.8882744 -1.04283959 21.77657722 -1.05493164 17.66479492 C-1.0599708 16.26504772 -1.06680216 14.8653058 -1.07543945 13.46557617 C-1.0875232 11.45754223 -1.09269807 9.44947043 -1.09765625 7.44140625 C-1.10551147 5.62684937 -1.10551147 5.62684937 -1.11352539 3.77563477 C-1 1 -1 1 0 0 Z " fill="#101618" transform="translate(127,90)"/>
<path d="M0 0 C1.43352212 0.00015908 2.86704998 0.00585132 4.30053711 0.01586914 C5.43041298 0.01799156 5.43041298 0.01799156 6.58311462 0.02015686 C8.99807646 0.02577163 11.41294687 0.03832656 13.82788086 0.05102539 C15.46134307 0.05603849 17.09480672 0.06060173 18.72827148 0.06469727 C22.74067671 0.07574585 26.75301326 0.09302033 30.76538086 0.11352539 C30.76538086 0.77352539 30.76538086 1.43352539 30.76538086 2.11352539 C31.89975586 2.13415039 33.03413086 2.15477539 34.20288086 2.17602539 C40.85490264 3.03549015 45.5082729 7.34644325 49.63256836 12.40258789 C55.53707574 20.84970611 55.84196871 29.82587585 54.14038086 39.86352539 C52.5791555 45.99848138 48.89078787 49.82161133 43.57788086 53.05102539 C40.76538086 54.11352539 40.76538086 54.11352539 37.76538086 54.11352539 C37.76538086 54.77352539 37.76538086 55.43352539 37.76538086 56.11352539 C34.30038086 56.60852539 34.30038086 56.60852539 30.76538086 57.11352539 C30.76538086 57.77352539 30.76538086 58.43352539 30.76538086 59.11352539 C27.25913656 60.28227349 24.11759426 60.23866806 20.47241211 60.21118164 C19.41336922 60.20905922 19.41336922 60.20905922 18.33293152 60.20689392 C16.0812046 60.20130303 13.82957765 60.18875227 11.57788086 60.17602539 C10.04988751 60.17100921 8.52189259 60.16644651 6.99389648 60.16235352 C3.25101951 60.15133659 -0.49178287 60.13407826 -4.23461914 60.11352539 C-4.25774735 52.43815912 -4.27553667 44.76279644 -4.28643131 37.0874033 C-4.2916591 33.52375117 -4.29875483 29.96012282 -4.31005859 26.39648438 C-4.3229609 22.30346442 -4.3278482 18.21046959 -4.33227539 14.11743164 C-4.33743668 12.83203995 -4.34259796 11.54664825 -4.34791565 10.2223053 C-4.34799118 9.04115646 -4.34806671 7.86000763 -4.34814453 6.64306641 C-4.35036514 5.59715836 -4.35258575 4.55125031 -4.35487366 3.47364807 C-4.16792408 -0.19543602 -3.77337266 0.13243402 0 0 Z " fill="#081011" transform="translate(454.234619140625,122.886474609375)"/>
<path d="M0 0 C2.97 0 5.94 0 9 0 C9.33 1.32 9.66 2.64 10 4 C11.051875 3.566875 11.051875 3.566875 12.125 3.125 C19.39066159 0.28191503 25.24311205 -1.65836625 32.8125 1.3125 C35.51329732 2.74233387 37.00144464 3.8015891 39 6 C39.99 6.33 40.98 6.66 42 7 C42.20625 6.38125 42.4125 5.7625 42.625 5.125 C44.60831115 2.05988277 46.49492011 1.90531206 50 1 C52.73289335 0.8143489 55.33604149 0.71945145 58.0625 0.75 C58.75666016 0.74226562 59.45082031 0.73453125 60.16601562 0.7265625 C64.18158359 0.74181632 67.47386794 1.00030318 71 3 C71.495 4.485 71.495 4.485 72 6 C72.99 6.495 72.99 6.495 74 7 C75.98071328 11.60717908 76.23514141 15.60732398 76.1953125 20.5859375 C76.1924826 21.28772125 76.18965271 21.989505 76.18673706 22.71255493 C76.17562512 24.93355028 76.15053834 27.15412845 76.125 29.375 C76.11495854 30.88931705 76.10583473 32.40364049 76.09765625 33.91796875 C76.07571554 37.61211258 76.04124875 41.30601551 76 45 C72.7 45 69.4 45 66 45 C65.98541748 44.14768799 65.97083496 43.29537598 65.95581055 42.41723633 C65.89456715 39.23928825 65.82037971 36.06197454 65.73754883 32.88452148 C65.70440194 31.51224042 65.67633829 30.13982638 65.65356445 28.76733398 C65.61983234 26.78862234 65.5659851 24.81028624 65.51171875 22.83203125 C65.48553467 21.64327393 65.45935059 20.4545166 65.43237305 19.22973633 C64.96223521 15.7179049 64.16159928 13.78830687 62 11 C59.32356043 10.10785348 57.74615622 9.86459789 55 9.875 C54.319375 9.87242187 53.63875 9.86984375 52.9375 9.8671875 C49.66124514 10.09176949 48.16807855 10.83008117 45.859375 13.1640625 C42.52235861 18.48104195 43.31673975 25.32595164 43.25 31.375 C43.20552734 33.33759766 43.20552734 33.33759766 43.16015625 35.33984375 C43.08964282 38.55995727 43.03685095 41.77935431 43 45 C39.7 45 36.4 45 33 45 C32.99589111 44.08186523 32.99178223 43.16373047 32.98754883 42.21777344 C32.96053816 38.80276072 32.91142817 35.3895399 32.84741211 31.97509766 C32.82425149 30.49897288 32.80984085 29.02268331 32.80444336 27.54638672 C32.79513816 25.42050737 32.7541254 23.29721232 32.70703125 21.171875 C32.6913208 19.8940918 32.67561035 18.61630859 32.65942383 17.29980469 C32.28399772 13.84095992 32.28399772 13.84095992 29.59838867 11.58276367 C25.65208318 9.1789397 22.47748659 9.35803731 18 10 C14.98049847 10.79427959 14.98049847 10.79427959 13 13 C10.79169935 19.77528802 10.57838424 26.415449 10.375 33.5 C10.31699219 35.16289062 10.31699219 35.16289062 10.2578125 36.859375 C10.16424757 39.57275797 10.07850517 42.28614661 10 45 C8.52093108 45.02689216 7.04172517 45.04634621 5.5625 45.0625 C4.73878906 45.07410156 3.91507813 45.08570313 3.06640625 45.09765625 C1 45 1 45 0 44 C-0.0927833 42.61839885 -0.11747043 41.23211962 -0.11352539 39.84741211 C-0.11341209 38.52615578 -0.11341209 38.52615578 -0.11329651 37.1782074 C-0.10555458 35.74227989 -0.10555458 35.74227989 -0.09765625 34.27734375 C-0.0962413 33.30213272 -0.09482635 32.32692169 -0.09336853 31.32215881 C-0.08775133 28.19390857 -0.07519593 25.06572877 -0.0625 21.9375 C-0.05748722 19.82226666 -0.05292393 17.70703219 -0.04882812 15.59179688 C-0.03777631 10.39450393 -0.02050016 5.19726392 0 0 Z " fill="#091415" transform="translate(520,137)"/>
<path d="M0 0 C8.10063993 -0.44007501 13.49304554 0.38697511 20.1875 5.375 C24.34082513 9.25143679 27.47150387 12.18654262 28 18 C28 20.97 28 23.94 28 27 C16.12 27 4.24 27 -8 27 C-8 27.66 -8 28.32 -8 29 C-7.34 29 -6.68 29 -6 29 C-5.54625 29.94875 -5.0925 30.8975 -4.625 31.875 C-2.75154392 35.59891346 -2.75154392 35.59891346 0.6875 37.625 C6.49435159 38.56665161 11.47260688 37.98986152 17 36 C17.495 35.01 17.495 35.01 18 34 C19.65 34.33 21.3 34.66 23 35 C23.495 38.465 23.495 38.465 24 42 C21 44 21 44 18 44 C18 44.66 18 45.32 18 46 C14.08560579 47.26073995 10.13235073 47.22032014 6.0625 47.25 C5.35931641 47.270625 4.65613281 47.29125 3.93164062 47.3125 C-0.6301437 47.34670269 -3.34155399 46.71162988 -7 44 C-7.93005859 43.37931641 -7.93005859 43.37931641 -8.87890625 42.74609375 C-14.63451202 38.27247905 -17.29686146 32.83407748 -18.34375 25.63671875 C-18.67794704 17.5742151 -15.96478553 11.29744021 -10.546875 5.41015625 C-7.15770332 2.32053257 -4.49581198 2 0 2 C0 1.34 0 0.68 0 0 Z " fill="#0A1618" transform="translate(711,136)"/>
<path d="M0 0 C3.85398449 2.84601931 5.51641092 5.95548277 7.03125 10.5 C7.1157887 12.9410776 7.14730786 15.35259213 7.12890625 17.79296875 C7.1274913 18.49899734 7.12607635 19.20502594 7.12461853 19.93244934 C7.11902764 22.18417626 7.10647688 24.43580321 7.09375 26.6875 C7.08873382 28.21549335 7.08417112 29.74348827 7.08007812 31.27148438 C7.0690612 35.01436135 7.05180287 38.75716373 7.03125 42.5 C3.73125 42.5 0.43125 42.5 -2.96875 42.5 C-2.96875 41.18 -2.96875 39.86 -2.96875 38.5 C-4.103125 39.139375 -5.2375 39.77875 -6.40625 40.4375 C-7.04433594 40.79714844 -7.68242188 41.15679687 -8.33984375 41.52734375 C-9.94753146 42.3972513 -9.94753146 42.3972513 -10.96875 43.5 C-13.04814836 43.65272417 -15.13393931 43.72195322 -17.21875 43.75 C-18.35828125 43.77578125 -19.4978125 43.8015625 -20.671875 43.828125 C-25.70578124 43.32712011 -28.1891207 41.24497911 -31.78125 37.8125 C-34.66880087 33.43992297 -34.62331644 31.65471068 -33.96875 26.5 C-32.18791703 22.37596575 -29.71928569 19.94220929 -25.96875 17.5 C-21.16088301 16.39923282 -16.49277627 16.37991651 -11.59375 16.4375 C-10.85769531 16.44201172 -10.12164063 16.44652344 -9.36328125 16.45117188 C-7.56506842 16.46284858 -5.76689803 16.48077989 -3.96875 16.5 C-5.06661425 11.09212615 -5.06661425 11.09212615 -8.96875 7.5 C-16.04108534 6.60276343 -23.07007555 8.03108073 -29.96875 9.5 C-31.91441951 6.02452927 -32.04512127 4.37493656 -30.96875 0.5 C-29.31875 0.17 -27.66875 -0.16 -25.96875 -0.5 C-25.96875 -1.16 -25.96875 -1.82 -25.96875 -2.5 C-16.86757126 -4.55239151 -8.24528212 -4.71158978 0 0 Z " fill="#070F10" transform="translate(640.96875,139.5)"/>
<path d="M0 0 C23.9375 0 23.9375 0 30.0625 4 C32 6 32 6 32 8 C32.66 8 33.32 8 34 8 C37.7076512 13.64337271 36.82559255 22.48994524 36 29 C34.7683369 32.37782285 33.69088535 33.42610966 31 36 C30.50757813 36.48726562 30.01515625 36.97453125 29.5078125 37.4765625 C21.40085215 44.99545318 10.6482986 42 0 42 C0 28.14 0 14.28 0 0 Z " fill="#60E0E9" transform="translate(461,132)"/>
<path d="M0 0 C13.2 0 26.4 0 40 0 C40 7 40 7 38.171875 9.625 C37.37265625 10.40875 36.5734375 11.1925 35.75 12 C32.03712203 15.82397196 29.37665287 19.24669427 27 24 C27.59167969 24.17015625 28.18335938 24.3403125 28.79296875 24.515625 C33.56818528 25.9801286 37.48905863 27.2762743 41 31 C43.50750224 36.25381422 43.92044504 41.91267391 42.25 47.515625 C40.79642556 50.4046042 39.31850891 51.74364547 36.75 53.6875 C36.00234375 54.26886719 35.2546875 54.85023438 34.484375 55.44921875 C29.20084807 58.74726937 24.53341644 59.25537834 18.375 59.1875 C16.43753906 59.17783203 16.43753906 59.17783203 14.4609375 59.16796875 C11.75478692 59.03663187 9.55970374 58.81208875 7 58 C7 57.34 7 56.68 7 56 C5.3603125 55.814375 5.3603125 55.814375 3.6875 55.625 C0 55 0 55 -3 53 C-1.125 47.25 -1.125 47.25 0 45 C3.8063457 45.67170806 7.35206816 46.72746564 11 48 C11 48.66 11 49.32 11 50 C20.37178324 50.24711146 20.37178324 50.24711146 28.8125 46.9375 C31.67246994 43.09696893 31.83940849 40.73744967 32 36 C31.01 35.67 30.02 35.34 29 35 C29 34.34 29 33.68 29 33 C28.01257813 32.95101562 27.02515625 32.90203125 26.0078125 32.8515625 C24.72648437 32.77679688 23.44515625 32.70203125 22.125 32.625 C20.84882813 32.55539063 19.57265625 32.48578125 18.2578125 32.4140625 C15 32 15 32 13 30 C12.50170553 26.26279147 12.63791429 24.54312856 14.75 21.375 C16.79908414 19.21207785 18.89342956 17.10657044 21 15 C23.33045607 12.27003717 24.86102265 10.41693206 26 7 C17.42 7 8.84 7 0 7 C0 4.69 0 2.38 0 0 Z " fill="#080F10" transform="translate(395,124)"/>
<path d="M0 0 C1 1 1 1 1.125 4 C1 7 1 7 0 8 C-6.11643483 8.23080886 -6.11643483 8.23080886 -8.9140625 7.5 C-11.35191872 6.91564495 -13.55748839 6.8674434 -16.0625 6.875 C-16.91972656 6.87242187 -17.77695312 6.86984375 -18.66015625 6.8671875 C-21.15564201 6.90634865 -21.15564201 6.90634865 -24 8 C-23.67 9.98 -23.34 11.96 -23 14 C-16.4 15.65 -9.8 17.3 -3 19 C-3 19.66 -3 20.32 -3 21 C-2.195625 21.309375 -1.39125 21.61875 -0.5625 21.9375 C2 23 2 23 3 24 C3.73682685 28.76425546 4.01889043 33.18321792 1.61328125 37.47265625 C-1.67096752 41.39808157 -3.80401301 43.43077671 -9 44 C-27.45406277 44.95483708 -27.45406277 44.95483708 -34 41 C-35.41029704 37.68165402 -35.14242192 36.42726575 -34 33 C-26.42118808 33.88419472 -26.42118808 33.88419472 -24.08203125 34.52734375 C-21.49365817 35.11494814 -19.08996381 35.13221759 -16.4375 35.125 C-15.48746094 35.12757813 -14.53742187 35.13015625 -13.55859375 35.1328125 C-10.8787562 35.10770994 -10.8787562 35.10770994 -8 34 C-7.67 32.02 -7.34 30.04 -7 28 C-8.134375 27.84144531 -9.26875 27.68289062 -10.4375 27.51953125 C-25.58548731 25.23633689 -25.58548731 25.23633689 -32 20 C-34.23465229 16.64802157 -34.27108649 15.42208754 -34.25 11.5 C-34.25515625 10.5409375 -34.2603125 9.581875 -34.265625 8.59375 C-34 6 -34 6 -32 3 C-31.34 3 -30.68 3 -30 3 C-30 2.34 -30 1.68 -30 1 C-20.01645135 -3.23544488 -10.33099054 -2.87912851 0 0 Z " fill="#091213" transform="translate(781,139)"/>
<path d="M0 0 C1 1 1 1 1.09765625 3.28515625 C1.06510417 5.85677083 1.03255208 8.42838542 1 11 C5.29 11 9.58 11 14 11 C14.04241723 13.33294775 14.04092937 15.66702567 14 18 C13 19 13 19 10.27734375 19.09765625 C9.17519531 19.08605469 8.07304688 19.07445312 6.9375 19.0625 C5.83277344 19.05347656 4.72804688 19.04445312 3.58984375 19.03515625 C2.73519531 19.02355469 1.88054688 19.01195312 1 19 C1.13867261 23.10444167 1.28716103 27.2084704 1.4375 31.3125 C1.47681641 32.47974609 1.51613281 33.64699219 1.55664062 34.84960938 C1.59853516 35.96787109 1.64042969 37.08613281 1.68359375 38.23828125 C1.72025146 39.26993408 1.75690918 40.30158691 1.79467773 41.36450195 C1.90161242 44.10748258 1.90161242 44.10748258 3 47 C6.96 47 10.92 47 15 47 C15 49.64 15 52.28 15 55 C9.465094 56.61545103 2.3579622 57.51271307 -3.01171875 55.09375 C-6.54970706 52.31326549 -8.45832001 49.14658755 -10 45 C-10.36379197 40.53524642 -10.28205613 36.10065701 -10.1875 31.625 C-10.17396484 30.41199219 -10.16042969 29.19898438 -10.14648438 27.94921875 C-10.11124582 24.96568794 -10.06197525 21.98307542 -10 19 C-12.31 19 -14.62 19 -17 19 C-17.09765625 12.84765625 -17.09765625 12.84765625 -17 11 C-16 10 -16 10 -12.9375 9.9375 C-11.4834375 9.9684375 -11.4834375 9.9684375 -10 10 C-10 7.03 -10 4.06 -10 1 C-6.74696956 -0.62651522 -3.60774398 -0.11453156 0 0 Z " fill="#0B191A" transform="translate(673,127)"/>
<path d="M0 0 C1.010625 0.433125 2.02125 0.86625 3.0625 1.3125 C10.13220942 5.37382243 14.37865501 13.31037267 16.98046875 20.8359375 C19.49035073 30.19202339 19.29084497 39.40211593 19 49 C18.67 49 18.34 49 18 49 C17.94392578 47.24623047 17.94392578 47.24623047 17.88671875 45.45703125 C17.8210372 43.90882325 17.75459061 42.36064758 17.6875 40.8125 C17.66494141 40.04357422 17.64238281 39.27464844 17.61914062 38.48242188 C17.39597332 33.75533266 16.69184991 31.00308608 14 27 C13.41015625 24.5703125 13.41015625 24.5703125 13.0625 22.125 C12.22199195 17.31183422 10.57457072 14.11931315 8 10 C8 9.34 8 8.68 8 8 C7.34 8 6.68 8 6 8 C5.01 6.515 5.01 6.515 4 5 C1.94074861 4.27617533 1.94074861 4.27617533 0 4 C0 3.34 0 2.68 0 2 C-1.65984798 1.31653318 -3.32836805 0.65411685 -5 0 C-5.886875 -0.37125 -6.77375 -0.7425 -7.6875 -1.125 C-13.83505279 -2.74888187 -19.31820159 -2.87747731 -25 0 C-25.66 -0.33 -26.32 -0.66 -27 -1 C-32.88989755 0.80403855 -38.74567369 3.07369132 -44 6.3125 C-47.04884651 8.02747616 -48.57545612 8.41509623 -52 8 C-52.33 8.99 -52.66 9.98 -53 11 C-55.109375 12.0625 -55.109375 12.0625 -57.75 13 C-61.44389568 14.3720184 -64.65082653 15.90676658 -68 18 C-68.66 18 -69.32 18 -70 18 C-70 18.66 -70 19.32 -70 20 C-75.445 21.485 -75.445 21.485 -81 23 C-81 22.01 -81 21.02 -81 20 C-81.99 20.66 -82.98 21.32 -84 22 C-84.46336014 24.35126025 -84.46336014 24.35126025 -84.39872742 27.1378479 C-84.41126556 28.2260231 -84.42380371 29.3141983 -84.4367218 30.43534851 C-84.43528671 31.63440323 -84.43385162 32.83345795 -84.43237305 34.06884766 C-84.4425647 35.32735031 -84.45275635 36.58585297 -84.46325684 37.88249207 C-84.49090896 41.33889771 -84.50012236 44.79513884 -84.50611091 48.2516408 C-84.51547337 51.8618682 -84.5416749 55.47197167 -84.56611633 59.0821228 C-84.60984389 65.920855 -84.6383523 72.75956323 -84.66143972 79.59839284 C-84.68845799 87.38312633 -84.73237146 95.16773554 -84.77772844 102.95238042 C-84.87066426 118.96819303 -84.94170459 134.98402343 -85 151 C-81.7 150.67 -78.4 150.34 -75 150 C-75.495 150.99 -75.495 150.99 -76 152 C-79.3 152 -82.6 152 -86 152 C-86.13885391 134.98887397 -86.24594631 117.97797402 -86.31087303 100.96641159 C-86.34182011 93.0677436 -86.38401616 85.16943403 -86.45263672 77.27099609 C-86.51241357 70.3872187 -86.55114298 63.50370083 -86.56453097 56.61967111 C-86.57235796 52.97398265 -86.59076853 49.32903672 -86.63438034 45.68358612 C-86.6826575 41.61521887 -86.68394104 37.54814484 -86.68115234 33.47949219 C-86.702724 32.26892654 -86.72429565 31.0583609 -86.746521 29.81111145 C-86.72376339 26.75463138 -86.65680395 23.98475774 -86 21 C-82.84895387 17.93184334 -81.37988179 17 -77 17 C-77 16.34 -77 15.68 -77 15 C-76.18660156 14.59910156 -75.37320313 14.19820312 -74.53515625 13.78515625 C-66.9159373 10.0055437 -59.36683859 6.11464439 -51.86352539 2.10961914 C-34.58591126 -7.10606815 -17.85212135 -9.52113139 0 0 Z " fill="#355A60" transform="translate(322,121)"/>
<path d="M0 0 C6.50879799 -0.13793479 12.63548121 0.34487081 19.06640625 1.3125 C20.44565529 1.5122644 20.44565529 1.5122644 21.85276794 1.71606445 C24.75692066 2.13807538 27.65968676 2.56888196 30.5625 3 C32.54483647 3.28964759 34.52725771 3.57871567 36.50976562 3.8671875 C41.34084915 4.57143204 46.17071037 5.28356169 51 6 C51 6.66 51 7.32 51 8 C51.84820312 7.97679688 52.69640625 7.95359375 53.5703125 7.9296875 C62.15017159 7.79768967 70.59343099 8.07646302 79 10 C81 12 81 12 81 16 C74.23405981 16.11381955 67.71162938 15.88021369 61 15 C61 14.34 61 13.68 61 13 C59.88882813 12.93941406 58.77765625 12.87882812 57.6328125 12.81640625 C34.5281994 11.5281994 34.5281994 11.5281994 33 10 C26.72896501 8.99613867 20.57683717 9.04835769 14.25 9.3125 C9.41950647 9.3617405 6.35436363 9.31021122 2.5625 6.1875 C0.26116827 3.85156178 0 3.40991509 0 0 Z " fill="#272828" transform="translate(184,77)"/>
<path d="M0 0 C1.11246094 0.00386719 2.22492187 0.00773438 3.37109375 0.01171875 C6.54043393 0.31042033 8.76907938 0.79665106 11.5625 2.3125 C11.8925 3.3025 12.2225 4.2925 12.5625 5.3125 C13.2225 5.6425 13.8825 5.9725 14.5625 6.3125 C16.50467969 10.85391097 16.79834947 14.77471446 16.7578125 19.6796875 C16.7549826 20.35927521 16.75215271 21.03886292 16.74923706 21.73904419 C16.73812964 23.88871608 16.71304391 26.03795614 16.6875 28.1875 C16.67745795 29.65363977 16.66833425 31.11978614 16.66015625 32.5859375 C16.63822159 36.16159631 16.60375814 39.73700594 16.5625 43.3125 C13.5925 43.3125 10.6225 43.3125 7.5625 43.3125 C7.2325 32.0925 6.9025 20.8725 6.5625 9.3125 C0.6225 8.6525 -5.3175 7.9925 -11.4375 7.3125 C-10.4375 3.3125 -10.4375 3.3125 -8.77734375 1.58203125 C-5.70954779 -0.08246572 -3.47591676 -0.05223921 0 0 Z " fill="#050B0C" transform="translate(579.4375,137.6875)"/>
<path d="M0 0 C6.5390874 0.16650454 12.10028709 1.38065214 17 6 C17 6.99 17 7.98 17 9 C23.50099911 11.70265768 23.50099911 11.70265768 30.3125 13.375 C33.71123372 14.16540319 36.6759275 15.55916956 39.83984375 17.01171875 C42.19646668 18.0898844 44.58341215 19.06454664 47 20 C47 20.66 47 21.32 47 22 C49.64 22 52.28 22 55 22 C55 22.99 55 23.98 55 25 C55.72179443 25.38857178 56.44358887 25.77714355 57.18725586 26.17749023 C60.43832796 27.92899517 63.68793004 29.68320983 66.9375 31.4375 C68.07380859 32.04916016 69.21011719 32.66082031 70.38085938 33.29101562 C71.46044922 33.87431641 72.54003906 34.45761719 73.65234375 35.05859375 C75.15269165 35.86768188 75.15269165 35.86768188 76.68334961 36.69311523 C79 38 79 38 80 39 C85.3881619 38.62863546 89.46873896 37.02146904 94.125 34.4375 C98.12472805 32.22073098 101.2923575 30.51147106 106 31 C106 31.99 106 32.98 106 34 C101.03906272 36.27376292 96.32187227 37.78623966 91 39 C91 39.66 91 40.32 91 41 C89.35 41.33 87.7 41.66 86 42 C86 42.66 86 43.32 86 44 C78.79363465 44.65512412 75.03220174 42.71848053 69 39 C62.85834391 35.50189958 56.62626579 32.17203857 50.375 28.875 C49.56804687 28.44574219 48.76109375 28.01648438 47.9296875 27.57421875 C43.3585045 25.16247447 38.78214634 22.96157745 34 21 C34 20.34 34 19.68 34 19 C32.576875 18.6596875 32.576875 18.6596875 31.125 18.3125 C26.10372496 16.89994419 21.59585827 14.42276633 17 12 C17 11.34 17 10.68 17 10 C16.195625 9.87625 15.39125 9.7525 14.5625 9.625 C13.716875 9.41875 12.87125 9.2125 12 9 C11.67 8.34 11.34 7.68 11 7 C9.01833966 5.9641321 7.01526169 4.96887581 5 4 C3.30792999 3.0436126 1.63183107 2.05589069 0 1 C0 0.67 0 0.34 0 0 Z " fill="#1C2B30" transform="translate(149,89)"/>
<path d="M0 0 C3.56425004 1.1920174 5.50590966 1.99028231 7.25 5.375 C7.56453125 5.96023437 7.8790625 6.54546875 8.203125 7.1484375 C12.29097604 16.64667962 11.15095418 31.08788441 7.97265625 40.65234375 C4.34380217 49.41114417 -0.80395624 56.80885964 -8.3125 62.6875 C-11.13848772 64.71219288 -11.13848772 64.71219288 -11.7734375 67.40625 C-13.50260121 71.06282548 -15.76424132 71.96804843 -19.3125 73.8125 C-20.44300781 74.41707031 -21.57351563 75.02164063 -22.73828125 75.64453125 C-25.84434986 76.93531665 -27.69654422 77.31609052 -31 77 C-31 76.01 -31 75.02 -31 74 C-29.865625 73.5875 -28.73125 73.175 -27.5625 72.75 C-23.90456616 71.43314602 -23.90456616 71.43314602 -23.0625 68.8125 C-23.0315625 67.9153125 -23.0315625 67.9153125 -23 67 C-21.34385343 66.61781233 -19.67542976 66.28604898 -18 66 C-17.67 66.33 -17.34 66.66 -17 67 C-13.02903312 62.18129861 -9.57691979 57.56976604 -6.9609375 51.890625 C-5.97277841 49.94644207 -4.82993158 48.34988096 -3.5 46.625 C1.21147578 40.24124115 3.63455174 32.87906439 4 25 C4.09474609 23.78763672 4.09474609 23.78763672 4.19140625 22.55078125 C4.55455185 14.52643494 2.46907034 7.55050527 0 0 Z " fill="#171D1E" transform="translate(307,150)"/>
<path d="M0 0 C4.09396708 1.27514534 7.80245843 2.80182508 11.59765625 4.79296875 C12.64010498 5.33735596 13.68255371 5.88174316 14.7565918 6.44262695 C16.39301636 7.30633911 16.39301636 7.30633911 18.0625 8.1875 C19.1863208 8.77684326 20.3101416 9.36618652 21.46801758 9.97338867 C24.64819589 11.64358743 27.82483953 13.32028579 31 15 C32.09296387 15.57669434 32.09296387 15.57669434 33.20800781 16.16503906 C39.44844747 19.46331944 45.61469095 22.88605167 51.75 26.375 C52.66495239 26.89477417 52.66495239 26.89477417 53.59838867 27.42504883 C57.8772017 29.8772017 57.8772017 29.8772017 59 31 C65.33739212 31.06799777 69.78057772 29.47961485 75 26 C75.495 25.505 75.495 25.505 76 25 C77.99958364 24.95919217 80.00045254 24.95745644 82 25 C82 24.34 82 23.68 82 23 C83.98 22.67 85.96 22.34 88 22 C84.8512398 26.7231403 79.98097269 28.47479205 75 31 C74.03449219 31.495 73.06898438 31.99 72.07421875 32.5 C65.76181516 35.57325873 60.99918403 37.36142435 54.0625 35 C53.381875 34.67 52.70125 34.34 52 34 C52 33.34 52 32.68 52 32 C51.443125 31.82984375 50.88625 31.6596875 50.3125 31.484375 C44.90409391 29.76684063 40.01937104 27.64657745 35 25 C35 24.34 35 23.68 35 23 C33.2984375 22.566875 33.2984375 22.566875 31.5625 22.125 C30.386875 21.75375 29.21125 21.3825 28 21 C27.67 20.34 27.34 19.68 27 19 C25.360431 18.26029728 23.71610733 17.52938535 22.04980469 16.85205078 C18.49737844 15.37539909 15.06973332 13.64717887 11.625 11.9375 C10.90183594 11.58623047 10.17867188 11.23496094 9.43359375 10.87304688 C4.1174653 8.2349306 4.1174653 8.2349306 3 6 C2.01 5.67 1.02 5.34 0 5 C0 3.35 0 1.7 0 0 Z " fill="#1D2C2F" transform="translate(252,53)"/>
<path d="M0 0 C0.66 0 1.32 0 2 0 C2.1685572 4.16233079 2.32900921 8.32487413 2.48217773 12.48779297 C2.53532535 13.90193951 2.59063076 15.31600676 2.64819336 16.72998047 C2.73087153 18.77033393 2.80561177 20.81085294 2.87890625 22.8515625 C2.9260376 24.07697754 2.97316895 25.30239258 3.02172852 26.56494141 C3.00103859 29.83580999 2.5631397 32.78741937 2 36 C2.165 36.86625 2.33 37.7325 2.5 38.625 C2.96220068 41.74485456 2.89782716 44.04842975 2.59765625 47.16015625 C1.89337712 55.03624594 1.38728579 62.91858259 0.9375 70.8125 C0.89264465 71.59571625 0.84778931 72.3789325 0.80157471 73.18588257 C-0.25342723 92.12085527 -0.20103106 111.04277137 0 130 C4.455 129.01 4.455 129.01 9 128 C6 131 6 131 3.95703125 131.29296875 C1.97135417 131.1953125 -0.01432292 131.09765625 -2 131 C-2.04667433 114.21503997 -2.08196638 97.43010013 -2.10362434 80.6450901 C-2.11394679 72.85191303 -2.12802555 65.05877623 -2.15087891 57.265625 C-2.17078323 50.47489247 -2.18370939 43.6841891 -2.18817699 36.89342821 C-2.19078941 33.29616016 -2.19694965 29.69897553 -2.21146011 26.10173416 C-2.22750907 22.09073399 -2.2279816 18.07987981 -2.22705078 14.06884766 C-2.23424133 12.86979294 -2.24143188 11.67073822 -2.24884033 10.43534851 C-2.246091 9.34717331 -2.24334167 8.25899811 -2.24050903 7.1378479 C-2.24235262 6.18840113 -2.24419621 5.23895435 -2.24609566 4.26073647 C-2 2 -2 2 0 0 Z " fill="#091013" transform="translate(239,141)"/>
<path d="M0 0 C0.721875 0.04125 1.44375 0.0825 2.1875 0.125 C5.39546763 1.67367403 7.00916501 4.12434945 9 7 C9 8.65 9 10.3 9 12 C1.08 12 -6.84 12 -15 12 C-14 5 -14 5 -11.4375 2.0625 C-7.64602434 -0.72400621 -4.58603465 -0.44380981 0 0 Z " fill="#5AD2DB" transform="translate(720,144)"/>
<path d="M0 0 C0.68835938 0.01353516 1.37671875 0.02707031 2.0859375 0.04101562 C3.76597001 0.0760163 5.4455935 0.12981046 7.125 0.1875 C7.46780843 6.65515243 7.46780843 6.65515243 5.98046875 8.96484375 C1.24431989 12.25907375 -2.70104907 12.72016984 -8.421875 12.65625 C-11.25637442 12.11462591 -12.21658839 11.52460151 -13.875 9.1875 C-14.0625 6 -14.0625 6 -13.875 3.1875 C-9.16630574 0.39308799 -5.36824646 -0.20286978 0 0 Z " fill="#5CD6DF" transform="translate(630.875,162.8125)"/>
<path d="M0 0 C1.43352212 0.00015908 2.86704998 0.00585132 4.30053711 0.01586914 C5.43041298 0.01799156 5.43041298 0.01799156 6.58311462 0.02015686 C8.99807646 0.02577163 11.41294687 0.03832656 13.82788086 0.05102539 C15.46134307 0.05603849 17.09480672 0.06060173 18.72827148 0.06469727 C22.74067671 0.07574585 26.75301326 0.09302033 30.76538086 0.11352539 C30.76538086 0.44352539 30.76538086 0.77352539 30.76538086 1.11352539 C19.87538086 1.11352539 8.98538086 1.11352539 -2.23461914 1.11352539 C-2.23461914 19.92352539 -2.23461914 38.73352539 -2.23461914 58.11352539 C8.65538086 58.11352539 19.54538086 58.11352539 30.76538086 58.11352539 C27.17093903 60.50981994 24.61676434 60.3713387 20.47241211 60.30883789 C19.76638351 60.306008 19.06035492 60.3031781 18.33293152 60.30026245 C16.08107453 60.28908003 13.82961734 60.26397959 11.57788086 60.23852539 C10.04989182 60.22849306 8.52189653 60.21936765 6.99389648 60.21118164 C3.25090423 60.18914711 -0.4917897 60.15463106 -4.23461914 60.11352539 C-4.25774735 52.43815912 -4.27553667 44.76279644 -4.28643131 37.0874033 C-4.2916591 33.52375117 -4.29875483 29.96012282 -4.31005859 26.39648438 C-4.3229609 22.30346442 -4.3278482 18.21046959 -4.33227539 14.11743164 C-4.33743668 12.83203995 -4.34259796 11.54664825 -4.34791565 10.2223053 C-4.34799118 9.04115646 -4.34806671 7.86000763 -4.34814453 6.64306641 C-4.35036514 5.59715836 -4.35258575 4.55125031 -4.35487366 3.47364807 C-4.16792408 -0.19543602 -3.77337266 0.13243402 0 0 Z " fill="#2A6267" transform="translate(454.234619140625,122.886474609375)"/>
<path d="M0 0 C1.010625 0.433125 2.02125 0.86625 3.0625 1.3125 C10.13220942 5.37382243 14.37865501 13.31037267 16.98046875 20.8359375 C19.49035073 30.19202339 19.29084497 39.40211593 19 49 C18.67 49 18.34 49 18 49 C17.94392578 47.24623047 17.94392578 47.24623047 17.88671875 45.45703125 C17.8210372 43.90882325 17.75459061 42.36064758 17.6875 40.8125 C17.65366211 39.65911133 17.65366211 39.65911133 17.61914062 38.48242188 C17.39597332 33.75533266 16.69184991 31.00308608 14 27 C13.41015625 24.5703125 13.41015625 24.5703125 13.0625 22.125 C12.22199195 17.31183422 10.57457072 14.11931315 8 10 C8 9.34 8 8.68 8 8 C7.34 8 6.68 8 6 8 C5.34 7.01 4.68 6.02 4 5 C1.94074861 4.27617533 1.94074861 4.27617533 0 4 C0 3.34 0 2.68 0 2 C-1.65984798 1.31653318 -3.32836805 0.65411685 -5 0 C-5.886875 -0.37125 -6.77375 -0.7425 -7.6875 -1.125 C-13.83505279 -2.74888187 -19.31820159 -2.87747731 -25 0 C-25.66 -0.33 -26.32 -0.66 -27 -1 C-29.05061033 -0.75290429 -31.09252671 -0.43007496 -33.125 -0.0625 C-34.76855469 0.22947266 -34.76855469 0.22947266 -36.4453125 0.52734375 C-37.70988281 0.76130859 -37.70988281 0.76130859 -39 1 C-38 -2 -38 -2 -34.875 -4.1875 C-23.35971216 -9.58204926 -10.52141745 -5.61142264 0 0 Z " fill="#498790" transform="translate(322,121)"/>
<path d="M0 0 C4.17223226 1.29558995 7.94038149 2.87273524 11.80859375 4.8984375 C13.42411133 5.74148437 13.42411133 5.74148437 15.07226562 6.6015625 C16.18279297 7.18679687 17.29332031 7.77203125 18.4375 8.375 C19.54416016 8.9525 20.65082031 9.53 21.79101562 10.125 C27.25430183 12.98563283 32.67493968 15.88924534 38 19 C37.34 19.66 36.68 20.32 36 21 C30.17212631 20.72633251 25.74069457 19.33501031 20.5625 16.75 C19.91651855 16.43716064 19.27053711 16.12432129 18.60498047 15.80200195 C4.43927715 8.87855431 4.43927715 8.87855431 3 6 C2.01 5.67 1.02 5.34 0 5 C0 3.35 0 1.7 0 0 Z " fill="#122225" transform="translate(252,53)"/>
<path d="M0 0 C0 0.66 0 1.32 0 2 C-1.22506898 2.65357278 -2.45529516 3.29748233 -3.6875 3.9375 C-4.37199219 4.29714844 -5.05648437 4.65679687 -5.76171875 5.02734375 C-8 6 -8 6 -13 7 C-13.33 49.57 -13.66 92.14 -14 136 C-10.7 135.67 -7.4 135.34 -4 135 C-4.495 135.99 -4.495 135.99 -5 137 C-8.3 137 -11.6 137 -15 137 C-15.13885391 119.98887397 -15.24594631 102.97797402 -15.31087303 85.96641159 C-15.34182011 78.0677436 -15.38401616 70.16943403 -15.45263672 62.27099609 C-15.51241357 55.3872187 -15.55114298 48.50370083 -15.56453097 41.61967111 C-15.57235796 37.97398265 -15.59076853 34.32903672 -15.63438034 30.68358612 C-15.6826575 26.61521887 -15.68394104 22.54814484 -15.68115234 18.47949219 C-15.702724 17.26892654 -15.72429565 16.0583609 -15.746521 14.81111145 C-15.72376729 11.75515558 -15.65710173 8.98422291 -15 6 C-10.87774278 2.08290218 -5.72468301 0 0 0 Z " fill="#214D51" transform="translate(251,136)"/>
<path d="M0 0 C1.32 0 2.64 0 4 0 C4.103125 1.175625 4.20625 2.35125 4.3125 3.5625 C4.74431639 6.95787821 5.57769952 9.75679158 7.04296875 12.875 C8.82887636 16.84044383 10.28199422 20.94385384 11.81640625 25.01171875 C12.904871 27.91093929 12.904871 27.91093929 14.15234375 30.20703125 C15 32 15 32 15 35 C13.35 34.67 11.7 34.34 10 34 C9.67 32.35 9.34 30.7 9 29 C8.34 29 7.68 29 7 29 C6.73445312 28.32453125 6.46890625 27.6490625 6.1953125 26.953125 C5.84210938 26.06109375 5.48890625 25.1690625 5.125 24.25 C4.77695313 23.36828125 4.42890625 22.4865625 4.0703125 21.578125 C3.06831792 19.04396516 3.06831792 19.04396516 1.875 16.90625 C0.5304712 13.97709797 0.8781026 11.16933237 1 8 C0.34 8 -0.32 8 -1 8 C-1.04241723 5.66705225 -1.04092937 3.33297433 -1 1 C-0.67 0.67 -0.34 0.34 0 0 Z " fill="#252E30" transform="translate(207,28)"/>
<path d="M0 0 C2.65721974 0.66430493 4.49228228 1.33696073 6.1875 3.55078125 C9.80078946 9.75448044 10.23072826 15.17401841 10.3125 22.25 C10.34150391 23.07113281 10.37050781 23.89226562 10.40039062 24.73828125 C10.46069515 30.59245868 9.41289014 35.15163521 6 40 C5.01 40.495 5.01 40.495 4 41 C3.95758277 38.66705225 3.95907063 36.33297433 4 34 C4.495 33.505 4.495 33.505 5 33 C5.80665411 21.25697769 4.00064223 11.07870155 0 0 Z " fill="#050707" transform="translate(307,150)"/>
<path d="M0 0 C2.00720923 0.28674418 4.0085944 0.61866701 6 1 C6.33 1.99 6.66 2.98 7 4 C9.07638672 4.73175115 9.07638672 4.73175115 11.5 5.0625 C13.96875 5.47265625 13.96875 5.47265625 16 6 C16.33 6.66 16.66 7.32 17 8 C15.43634416 7.71459486 13.87411566 7.42136502 12.3125 7.125 C11.44238281 6.96257812 10.57226562 6.80015625 9.67578125 6.6328125 C6.97547329 5.99419952 4.54683238 5.09215515 2 4 C1.9729509 7.06255961 1.95313702 10.1248786 1.9375 13.1875 C1.92912109 14.05181641 1.92074219 14.91613281 1.91210938 15.80664062 C1.82457005 21.97742536 1.82457005 21.97742536 3 28 C5.26669413 29.51112942 7.4031954 30.13439847 10 31 C10.6875 33.0625 10.6875 33.0625 11 35 C9.35 34.67 7.7 34.34 6 34 C6 33.34 6 32.68 6 32 C3.69 31.34 1.38 30.68 -1 30 C-1.02465746 25.8882744 -1.04283959 21.77657722 -1.05493164 17.66479492 C-1.0599708 16.26504772 -1.06680216 14.8653058 -1.07543945 13.46557617 C-1.0875232 11.45754223 -1.09269807 9.44947043 -1.09765625 7.44140625 C-1.10289307 6.23170166 -1.10812988 5.02199707 -1.11352539 3.77563477 C-1 1 -1 1 0 0 Z " fill="#407B84" transform="translate(127,90)"/>
<path d="M0 0 C7.40195416 -0.29607817 14.75198653 0.45908375 22 2 C24 4 24 4 24 8 C17.23405981 8.11381955 10.71162938 7.88021369 4 7 C4 5.68 4 4.36 4 3 C2.68 2.34 1.36 1.68 0 1 C0 0.67 0 0.34 0 0 Z " fill="#1A2E32" transform="translate(241,85)"/>
<path d="M0 0 C11.26202546 0.41102283 22.01400147 2.63163268 33 5 C29.36117491 8.63882509 23.68716761 7.83686003 18.75 8.125 C17.61691406 8.23070313 16.48382813 8.33640625 15.31640625 8.4453125 C7.08135611 8.90871509 7.08135611 8.90871509 3.86523438 6.20605469 C2.35761864 4.19796721 1.11288269 2.24777153 0 0 Z " fill="#070708" transform="translate(185,78)"/>
<path d="M0 0 C-1.134375 0.45375 -2.26875 0.9075 -3.4375 1.375 C-7.04721692 2.57095806 -7.04721692 2.57095806 -8 5 C-7.236875 4.649375 -6.47375 4.29875 -5.6875 3.9375 C-3 3 -3 3 0 4 C-0.73605469 4.32613281 -1.47210938 4.65226562 -2.23046875 4.98828125 C-3.20628906 5.42527344 -4.18210937 5.86226563 -5.1875 6.3125 C-6.63189453 6.95638672 -6.63189453 6.95638672 -8.10546875 7.61328125 C-10.99692678 8.93037896 -10.99692678 8.93037896 -13.53125 10.59375 C-16.17481087 12.09957581 -18.32751106 12.67010192 -21.3125 13.1875 C-22.19550781 13.34605469 -23.07851563 13.50460938 -23.98828125 13.66796875 C-24.65214844 13.77753906 -25.31601562 13.88710937 -26 14 C-25.57847656 13.51789063 -25.15695312 13.03578125 -24.72265625 12.5390625 C-24.17480469 11.90742188 -23.62695312 11.27578125 -23.0625 10.625 C-22.51722656 9.99851562 -21.97195313 9.37203125 -21.41015625 8.7265625 C-19.93041376 7.04367666 -19.93041376 7.04367666 -19 5 C-16.890625 3.74609375 -16.890625 3.74609375 -14.25 2.4375 C-13.38890625 2.00308594 -12.5278125 1.56867188 -11.640625 1.12109375 C-7.50939832 -0.6328442 -4.31626484 -1.43875495 0 0 Z " fill="#385558" transform="translate(291,117)"/>
<path d="M0 0 C0.33 0 0.66 0 1 0 C1.02685095 2.47923801 1.04676547 4.9581884 1.0625 7.4375 C1.07087891 8.14455078 1.07925781 8.85160156 1.08789062 9.58007812 C1.09653588 11.38693559 1.05220011 13.19387603 1 15 C0.67 15.33 0.34 15.66 0 16 C-0.24733137 20.14276875 -0.24733137 20.14276875 1 24 C-1.19779832 28.985667 -3.66449236 33.12678347 -8.25 36.125 C-11 37 -11 37 -13 37 C-11.92467341 33.77402022 -10.67740918 31.56704916 -8.625 28.8125 C-2.25077719 20.031491 -1.06597953 10.51953485 0 0 Z " fill="#112023" transform="translate(312,168)"/>
<path d="M0 0 C33.39660591 1.19830295 33.39660591 1.19830295 39 4 C41.54197964 4.3912935 44.07391589 4.74479119 46.625 5.0625 C47.33140625 5.15337891 48.0378125 5.24425781 48.765625 5.33789062 C50.5100041 5.56183119 52.25495134 5.78133818 54 6 C52 8 52 8 49.47802734 8.04345703 C48.4411377 7.94919434 47.40424805 7.85493164 46.3359375 7.7578125 C45.21445313 7.66113281 44.09296875 7.56445312 42.9375 7.46484375 C41.761875 7.35269531 40.58625 7.24054687 39.375 7.125 C38.19164062 7.02058594 37.00828125 6.91617188 35.7890625 6.80859375 C32.85837942 6.5486138 29.92895467 6.27867724 27 6 C27 5.34 27 4.68 27 4 C26.28457031 4.02320313 25.56914062 4.04640625 24.83203125 4.0703125 C17.91954912 4.19550623 11.42891943 3.61362638 4.6171875 2.4375 C2.11347904 1.9450412 2.11347904 1.9450412 0 2 C0 1.34 0 0.68 0 0 Z " fill="#2C4A4F" transform="translate(155,56)"/>
<path d="M0 0 C3.8063457 0.67170806 7.35206816 1.72746564 11 3 C11 3.66 11 4.32 11 5 C14.96 5 18.92 5 23 5 C23 5.33 23 5.66 23 6 C20.85423363 6.02685938 18.70837355 6.04633088 16.5625 6.0625 C15.36753906 6.07410156 14.17257812 6.08570313 12.94140625 6.09765625 C10 6 10 6 9 5 C6.67182036 4.63239269 4.3381615 4.29758419 2 4 C2 5.32 2 6.64 2 8 C10.026086 10.74341572 17.50569131 12.65954675 26 13 C26 13.33 26 13.66 26 14 C23.58325776 14.02705308 21.1668206 14.04686438 18.75 14.0625 C17.72712891 14.07506836 17.72712891 14.07506836 16.68359375 14.08789062 C13.30657446 14.10428392 10.22708361 14.05628768 7 13 C7 12.34 7 11.68 7 11 C5.906875 10.87625 4.81375 10.7525 3.6875 10.625 C0 10 0 10 -3 8 C-1.125 2.25 -1.125 2.25 0 0 Z " fill="#193B3E" transform="translate(395,169)"/>
<path d="M0 0 C5.75 1.625 5.75 1.625 8 5 C8.99 5.33 9.98 5.66 11 6 C11 6.66 11 7.32 11 8 C9.88625 8.391875 8.7725 8.78375 7.625 9.1875 C3.34126833 10.770122 -0.60419537 12.82039132 -4.60546875 15.01171875 C-7.25107638 16.10362532 -9.16603404 16.18624643 -12 16 C-7.853829 11.61690495 -4.06700167 8.12351883 2 7 C1.34414811 3.39007621 1.34414811 3.39007621 0 0 Z " fill="#64868D" transform="translate(243,112)"/>
<path d="M0 0 C0 3.34600063 -0.45959166 4.02314475 -2.375 6.625 C-2.81585938 7.23601562 -3.25671875 7.84703125 -3.7109375 8.4765625 C-5 10 -5 10 -7 11 C-7 11.66 -7 12.32 -7 13 C-7.66 12.67 -8.32 12.34 -9 12 C-8.67 11.34 -8.34 10.68 -8 10 C-11.72614153 11.11854586 -11.72614153 11.11854586 -14 14 C-13.34 14.33 -12.68 14.66 -12 15 C-16.56327794 18.53286034 -20.49633208 18.32374517 -26 18 C-23.07651242 14.71669856 -20.24542505 14.04133067 -16 13 C-16 12.34 -16 11.68 -16 11 C-13.35261084 9.5393715 -12.10551666 9 -9 9 C-9 8.34 -9 7.68 -9 7 C-7.28515625 5.52734375 -7.28515625 5.52734375 -5.0625 3.9375 C-2.41985962 2.10094469 -2.41985962 2.10094469 0 0 Z " fill="#1F4146" transform="translate(297,206)"/>
<path d="M0 0 C4.71623262 0.45348391 7.35270388 1.0365719 11 4 C12.69984492 4.73766855 14.40084538 5.47345007 16.1171875 6.171875 C19.22303352 7.53793176 22.08210401 9.27308197 25 11 C25 11.66 25 12.32 25 13 C25.78375 13.28875 26.5675 13.5775 27.375 13.875 C30 15 30 15 32 17 C32 18.875 32 18.875 31 21 C28.1875 23.3125 28.1875 23.3125 25 25 C23.68 24.67 22.36 24.34 21 24 C23.97 22.35 26.94 20.7 30 19 C28.68 18.67 27.36 18.34 26 18 C25.566875 17.236875 25.13375 16.47375 24.6875 15.6875 C21.22556304 10.17404485 13.30850593 7.58883184 7.5625 4.75 C6.83095703 4.38648438 6.09941406 4.02296875 5.34570312 3.6484375 C3.56472339 2.76376783 1.78249279 1.88161708 0 1 C0 0.67 0 0.34 0 0 Z " fill="#69AEB3" transform="translate(309,57)"/>
<path d="M0 0 C1.05564637 2.6893848 1.08703371 3.77399311 0.03125 6.515625 C-4.34127875 14.32371205 -8.81712712 21.7979842 -17 26 C-18.34631825 26.98244845 -19.68441297 27.97676564 -21 29 C-21.66 28.67 -22.32 28.34 -23 28 C-22.36771484 27.29423828 -22.36771484 27.29423828 -21.72265625 26.57421875 C-21.17480469 25.95160156 -20.62695312 25.32898438 -20.0625 24.6875 C-19.51722656 24.07261719 -18.97195313 23.45773438 -18.41015625 22.82421875 C-16.79918441 20.94758042 -16.79918441 20.94758042 -16 18 C-13.72614163 16.95525426 -11.44990769 16.14269799 -9.06640625 15.38671875 C-5.9409783 13.28931436 -4.7813887 10.19410427 -3.25 6.875 C-2.93417969 6.21628906 -2.61835938 5.55757812 -2.29296875 4.87890625 C-1.51766255 3.25781147 -0.75734314 1.62956416 0 0 Z " fill="#111416" transform="translate(314,187)"/>
<path d="M0 0 C0.33 0 0.66 0 1 0 C1 4.29 1 8.58 1 13 C1.66 13 2.32 13 3 13 C3 22.9 3 32.8 3 43 C2.34 43 1.68 43 1 43 C1 44.98 1 46.96 1 49 C0.67 49 0.34 49 0 49 C0 32.83 0 16.66 0 0 Z " fill="#53C0CA" transform="translate(267,211)"/>
<path d="M0 0 C4.00005032 1.33335011 4.53968236 3.08034416 6.625 6.6875 C7.23601562 7.72261719 7.84703125 8.75773437 8.4765625 9.82421875 C9.98448262 12.96765223 10.61760521 15.55327935 11 19 C9.35 18.67 7.7 18.34 6 18 C5.67 16.35 5.34 14.7 5 13 C4.34 13 3.68 13 3 13 C2.49242138 11.58603098 1.99425075 10.16868271 1.5 8.75 C1.08234375 7.56664062 1.08234375 7.56664062 0.65625 6.359375 C0 4 0 4 0 0 Z " fill="#121416" transform="translate(211,44)"/>
<path d="M0 0 C1.12664063 -0.01417969 2.25328125 -0.02835938 3.4140625 -0.04296875 C6.375 0.1875 6.375 0.1875 9.375 2.1875 C8.39660156 2.15269531 7.41820312 2.11789063 6.41015625 2.08203125 C-1.21761917 1.92452556 -7.4935332 2.18477714 -14.625 5.1875 C-14.295 6.8375 -13.965 8.4875 -13.625 10.1875 C-12.95082031 10.02378906 -12.27664063 9.86007813 -11.58203125 9.69140625 C-8.11132094 9.0999642 -4.83177876 9.09210954 -1.3125 9.125 C-0.05824219 9.13402344 1.19601562 9.14304688 2.48828125 9.15234375 C3.44089844 9.16394531 4.39351562 9.17554688 5.375 9.1875 C5.375 9.5175 5.375 9.8475 5.375 10.1875 C4.27800781 10.32027344 3.18101562 10.45304688 2.05078125 10.58984375 C0.59634199 10.76812985 -0.85808442 10.9465208 -2.3125 11.125 C-3.03373047 11.21201172 -3.75496094 11.29902344 -4.49804688 11.38867188 C-8.24510584 11.85063805 -11.93292911 12.37917679 -15.625 13.1875 C-17.24449011 10.61536866 -17.66908751 9.51080841 -17.25 6.4375 C-17.04375 5.695 -16.8375 4.9525 -16.625 4.1875 C-14.975 3.8575 -13.325 3.5275 -11.625 3.1875 C-11.625 2.5275 -11.625 1.8675 -11.625 1.1875 C-7.70617779 0.2701727 -4.02154323 0.02311232 0 0 Z " fill="#2B656A" transform="translate(626.625,135.8125)"/>
<path d="M0 0 C6.95109357 0.15111073 12.12746415 3.52745168 18 7 C17.34 7.66 16.68 8.32 16 9 C10.10953629 8.79688056 4.84629239 7.50479998 0 4 C-0.33 3.01 -0.66 2.02 -1 1 C-0.67 0.67 -0.34 0.34 0 0 Z " fill="#0D1514" transform="translate(272,65)"/>
<path d="M0 0 C2.08218362 -0.10832169 4.16599129 -0.18573541 6.25 -0.25 C7.99023438 -0.31960937 7.99023438 -0.31960937 9.765625 -0.390625 C13 0 13 0 15.4375 1.875 C17 4 17 4 16.75 6.25 C16.5025 6.8275 16.255 7.405 16 8 C16.78375 8.144375 17.5675 8.28875 18.375 8.4375 C21 9 21 9 23 10 C22.67 10.66 22.34 11.32 22 12 C17.05 9.69 12.1 7.38 7 5 C7 4.34 7 3.68 7 3 C4.69 2.34 2.38 1.68 0 1 C0 0.67 0 0.34 0 0 Z " fill="#1A3538" transform="translate(280,73)"/>
<path d="M0 0 C1.98 0.99 1.98 0.99 4 2 C3.34 2 2.68 2 2 2 C2.45375 3.010625 2.9075 4.02125 3.375 5.0625 C4.41454633 7.46734911 5.16024313 9.62864611 5.8125 12.1875 C7.28735132 16.92254896 9.51788736 21.06266096 11.85546875 25.42578125 C12.23316406 26.27527344 12.61085938 27.12476562 13 28 C12.67 28.66 12.34 29.32 12 30 C9.6875 29.1875 9.6875 29.1875 7 27 C5.99084251 24.28981721 5.33814711 21.59044372 4.6875 18.7734375 C4.03550143 15.79192067 4.03550143 15.79192067 2.375 12.375 C0.69307571 8.24664037 0.29045296 4.41688805 0 0 Z " fill="#689BA1" transform="translate(252,59)"/>
<path d="M0 0 C1.24523437 0.02707031 2.49046875 0.05414063 3.7734375 0.08203125 C4.71445312 0.11683594 5.65546875 0.15164062 6.625 0.1875 C6.625 0.8475 6.625 1.5075 6.625 2.1875 C8.275 2.1875 9.925 2.1875 11.625 2.1875 C11.625 3.5075 11.625 4.8275 11.625 6.1875 C11.92904678 7.85975729 12.25628912 9.52830104 12.625 11.1875 C10.625 10.1875 10.625 10.1875 9.1875 7.75 C7.72835955 4.9519028 7.72835955 4.9519028 4.625 3.1875 C-1.82286503 2.40808774 -6.6980688 2.92326456 -12.375 6.1875 C-13.365 5.8575 -14.355 5.5275 -15.375 5.1875 C-14.715 5.1875 -14.055 5.1875 -13.375 5.1875 C-13.375 4.5275 -13.375 3.8675 -13.375 3.1875 C-8.70450485 0.4498713 -5.38700281 -0.15246234 0 0 Z " fill="#2F4A54" transform="translate(296.375,144.8125)"/>
<path d="M0 0 C-1.62170379 1.00533667 -3.24747237 2.00411907 -4.875 3 C-5.77992188 3.556875 -6.68484375 4.11375 -7.6171875 4.6875 C-10 6 -10 6 -12 6 C-12 6.66 -12 7.32 -12 8 C-17.445 9.485 -17.445 9.485 -23 11 C-23 10.34 -23 9.68 -23 9 C-21.71086513 8.32845067 -20.41859796 7.66291141 -19.125 7 C-18.40570313 6.62875 -17.68640625 6.2575 -16.9453125 5.875 C-15 5 -15 5 -13 5 C-13 4.34 -13 3.68 -13 3 C-14.98 3.33 -16.96 3.66 -19 4 C-16.53721199 1.53721199 -14.29323018 1.00228745 -11 0 C-10.67 0.66 -10.34 1.32 -10 2 C-9.0925 1.484375 -8.185 0.96875 -7.25 0.4375 C-3.83580335 -1.07262544 -3.31395986 -1.08784335 0 0 Z " fill="#4C6264" transform="translate(264,133)"/>
<path d="M0 0 C0 0.33 0 0.66 0 1 C-8.415 1.495 -8.415 1.495 -17 2 C-17 2.66 -17 3.32 -17 4 C-20.96 4.66 -24.92 5.32 -29 6 C-28 3 -28 3 -24.875 0.8125 C-17.47718894 -2.70515245 -7.80632719 -1.83590487 0 0 Z " fill="#73878A" transform="translate(312,116)"/>
<path d="M0 0 C0.66 0 1.32 0 2 0 C2.19279158 4.19874162 2.3714261 8.39777796 2.53710938 12.59765625 C2.59541735 14.02555376 2.65755423 15.45330036 2.72363281 16.88085938 C2.81808538 18.93591834 2.89863877 20.99113101 2.9765625 23.046875 C3.02893066 24.28276367 3.08129883 25.51865234 3.13525391 26.79199219 C3 30 3 30 1 34 C1 25.09 1 16.18 1 7 C0.34 7 -0.32 7 -1 7 C-1 13.6 -1 20.2 -1 27 C-1.33 27 -1.66 27 -2 27 C-2.05784708 22.87505849 -2.09354407 18.75022056 -2.125 14.625 C-2.14175781 13.449375 -2.15851563 12.27375 -2.17578125 11.0625 C-2.18222656 9.94101563 -2.18867188 8.81953125 -2.1953125 7.6640625 C-2.20578613 6.62717285 -2.21625977 5.5902832 -2.22705078 4.52197266 C-2 2 -2 2 0 0 Z " fill="#10171A" transform="translate(239,141)"/>
<path d="M0 0 C5.38522855 0.06767792 9.86447167 1.18048111 14.375 4.1875 C14.375 4.8475 14.375 5.5075 14.375 6.1875 C7.27409367 6.43665461 0.97175416 6.11264366 -4.625 1.1875 C-3.625 0.1875 -3.625 0.1875 0 0 Z " fill="#0A1115" transform="translate(230.625,83.8125)"/>
<path d="M0 0 C1.22589844 0.01353516 1.22589844 0.01353516 2.4765625 0.02734375 C3.41628906 0.04474609 3.41628906 0.04474609 4.375 0.0625 C4.375 0.7225 4.375 1.3825 4.375 2.0625 C6.00126404 3.44482443 7.6675002 4.78187515 9.375 6.0625 C7.06215544 5.92223717 4.74972409 5.77514442 2.4375 5.625 C0.50583984 5.50318359 0.50583984 5.50318359 -1.46484375 5.37890625 C-4.625 5.0625 -4.625 5.0625 -5.625 4.0625 C-7.47391946 3.82886119 -9.32988031 3.64946365 -11.1875 3.5 C-12.19941406 3.41621094 -13.21132812 3.33242187 -14.25390625 3.24609375 C-15.42759766 3.15521484 -15.42759766 3.15521484 -16.625 3.0625 C-16.625 2.7325 -16.625 2.4025 -16.625 2.0625 C-15.57699219 1.97162109 -15.57699219 1.97162109 -14.5078125 1.87890625 C-13.59773437 1.79511719 -12.68765625 1.71132812 -11.75 1.625 C-10.84507812 1.54378906 -9.94015625 1.46257812 -9.0078125 1.37890625 C-5.71912885 0.94221219 -3.43698441 -0.04909978 0 0 Z " fill="#112529" transform="translate(222.625,82.9375)"/>
<path d="M0 0 C1.65 0 3.3 0 5 0 C3.68 0.33 2.36 0.66 1 1 C1.33 3.31 1.66 5.62 2 8 C11.57 8 21.14 8 31 8 C30.67 8.66 30.34 9.32 30 10 C22.27706287 12.30359119 10.74362573 12.30907879 3 9.8125 C0 8 0 8 -1.0625 5.5 C-1 3 -1 3 0 0 Z " fill="#1E474A" transform="translate(747,172)"/>
<path d="M0 0 C5.73842251 -0.20413361 10.60539047 -0.27141454 16 2 C16.95377184 6.00320153 17.1157616 9.72211747 17.09765625 13.83203125 C17.09443359 15.12431641 17.09121094 16.41660156 17.08789062 17.74804688 C17.07953665 19.10286526 17.07107172 20.45768297 17.0625 21.8125 C17.05748 23.18684735 17.05291797 24.56119645 17.04882812 25.93554688 C17.03705668 29.29040924 17.02061283 32.64518221 17 36 C19.97 36 22.94 36 26 36 C26 36.33 26 36.66 26 37 C22.7 37 19.4 37 16 37 C15.98541748 36.14768799 15.97083496 35.29537598 15.95581055 34.41723633 C15.89456715 31.23928825 15.82037971 28.06197454 15.73754883 24.88452148 C15.70440194 23.51224042 15.67633829 22.13982638 15.65356445 20.76733398 C15.61983234 18.78862234 15.5659851 16.81028624 15.51171875 14.83203125 C15.48553467 13.64327393 15.45935059 12.4545166 15.43237305 11.22973633 C14.96223521 7.7179049 14.16159928 5.78830687 12 3 C8.98509443 1.99503148 6.95818308 1.89664697 3.8125 1.9375 C2.91144531 1.94652344 2.01039063 1.95554688 1.08203125 1.96484375 C0.05142578 1.98224609 0.05142578 1.98224609 -1 2 C-0.67 1.34 -0.34 0.68 0 0 Z " fill="#193B3F" transform="translate(570,145)"/>
<path d="M0 0 C1.03253906 0.01353516 1.03253906 0.01353516 2.0859375 0.02734375 C3.76577838 0.05067487 5.44543746 0.08653674 7.125 0.125 C7.125 0.455 7.125 0.785 7.125 1.125 C6.17238281 1.17398438 5.21976563 1.22296875 4.23828125 1.2734375 C2.98402344 1.34820312 1.72976563 1.42296875 0.4375 1.5 C-1.42455078 1.60441406 -1.42455078 1.60441406 -3.32421875 1.7109375 C-6.56817772 2.08922094 -8.94067185 2.74479976 -11.875 4.125 C-12.04181109 7.04152174 -12.04181109 7.04152174 -11.875 10.125 C-9.98653817 12.45366229 -9.98653817 12.45366229 -6.8359375 12.3203125 C-5.65257812 12.29710937 -4.46921875 12.27390625 -3.25 12.25 C-2.06148437 12.23195312 -0.87296875 12.21390625 0.3515625 12.1953125 C1.72441406 12.16050781 1.72441406 12.16050781 3.125 12.125 C3.125 12.785 3.125 13.445 3.125 14.125 C1.23090022 14.34854607 -0.6654348 14.55319951 -2.5625 14.75 C-4.14611328 14.92402344 -4.14611328 14.92402344 -5.76171875 15.1015625 C-8.875 15.125 -8.875 15.125 -13.875 13.125 C-13.875 9.495 -13.875 5.865 -13.875 2.125 C-9.17038677 0.26367327 -4.9992304 -0.1259496 0 0 Z " fill="#193A3E" transform="translate(629.875,161.875)"/>
<path d="M0 0 C4.62 0.66 9.24 1.32 14 2 C11.36008732 4.63991268 10.02053704 4.30240797 6.3359375 4.4140625 C5.21445313 4.45273438 4.09296875 4.49140625 2.9375 4.53125 C1.761875 4.5621875 0.58625 4.593125 -0.625 4.625 C-1.80835938 4.66367188 -2.99171875 4.70234375 -4.2109375 4.7421875 C-7.14046691 4.83668845 -10.06998597 4.92224558 -13 5 C-13.33 4.34 -13.66 3.68 -14 3 C-7.07 2.01 -7.07 2.01 0 1 C0 0.67 0 0.34 0 0 Z " fill="#0A1212" transform="translate(204,81)"/>
<path d="M0 0 C4.61816193 1.45514223 4.61816193 1.45514223 6.36328125 3.9453125 C6.67652344 4.66460937 6.98976563 5.38390625 7.3125 6.125 C7.63863281 6.84945312 7.96476562 7.57390625 8.30078125 8.3203125 C8.53152344 8.87460938 8.76226562 9.42890625 9 10 C8.01 11.485 8.01 11.485 7 13 C6.61500109 14.65549531 6.27206865 16.3222433 6 18 C3.98973944 14.41412982 2.97196209 10.69906354 1.875 6.75 C1.52179688 5.48671875 1.16859375 4.2234375 0.8046875 2.921875 C0.53914063 1.95765625 0.27359375 0.9934375 0 0 Z " fill="#0A0F11" transform="translate(307,150)"/>
<path d="M0 0 C3.77071576 0.46238483 6.54881275 1.66274175 9.8125 3.5625 C10.60269531 4.01753906 11.39289063 4.47257812 12.20703125 4.94140625 C12.79871094 5.29074219 13.39039063 5.64007813 14 6 C14 6.99 14 7.98 14 9 C11.69 8.67 9.38 8.34 7 8 C7 7.34 7 6.68 7 6 C5.865625 5.731875 4.73125 5.46375 3.5625 5.1875 C2.386875 4.795625 1.21125 4.40375 0 4 C-0.33 3.01 -0.66 2.02 -1 1 C-0.67 0.67 -0.34 0.34 0 0 Z " fill="#0B0F0F" transform="translate(296,77)"/>
<path d="M0 0 C1 2 1 2 0.4375 4.75 C-0.06987245 8.51905246 0.33699427 10.59479778 2 14 C4.03243548 14.96877057 4.03243548 14.96877057 6 15 C6 16.32 6 17.64 6 19 C10.95 19.33 15.9 19.66 21 20 C21 20.33 21 20.66 21 21 C18.93816367 21.08150744 16.87538651 21.1394194 14.8125 21.1875 C13.08966797 21.23970703 13.08966797 21.23970703 11.33203125 21.29296875 C6.25813359 20.84684645 3.80086714 18.76527305 0.1875 15.3125 C-2.67961251 10.97087248 -2.57710628 9.11151279 -2 4 C-1 1.5 -1 1.5 0 0 Z " fill="#1E474B" transform="translate(609,162)"/>
<path d="M0 0 C3.72433382 1.2125738 7.37802806 2.50859979 11 4 C11 4.99 11 5.98 11 7 C11.99 7.33 12.98 7.66 14 8 C14 8.66 14 9.32 14 10 C9.545 9.01 9.545 9.01 5 8 C5 6.68 5 5.36 5 4 C3.35 4 1.7 4 0 4 C0 2.68 0 1.36 0 0 Z " fill="#171819" transform="translate(185,105)"/>
<path d="M0 0 C0 0.66 0 1.32 0 2 C-1.22506898 2.65357278 -2.45529516 3.29748233 -3.6875 3.9375 C-4.37199219 4.29714844 -5.05648437 4.65679687 -5.76171875 5.02734375 C-8 6 -8 6 -13 7 C-13.33 13.6 -13.66 20.2 -14 27 C-14.33 27 -14.66 27 -15 27 C-15.17446934 23.58397985 -15.28089623 20.16910363 -15.375 16.75 C-15.42527344 15.78191406 -15.47554687 14.81382812 -15.52734375 13.81640625 C-15.58374747 11.0902264 -15.56173142 8.66971593 -15 6 C-10.79856255 2.14141844 -5.74285689 0 0 0 Z " fill="#234C52" transform="translate(251,136)"/>
<path d="M0 0 C2.76598191 1.91491055 5.06502424 3.70086162 7.25 6.25 C5.93 6.25 4.61 6.25 3.25 6.25 C3.25 5.59 3.25 4.93 3.25 4.25 C1.59015202 3.56653318 -0.07836805 2.90411685 -1.75 2.25 C-2.636875 1.87875 -3.52375 1.5075 -4.4375 1.125 C-10.34435173 -0.43530046 -16.34386921 -0.88904369 -21.75 2.25 C-22.41 1.26 -23.07 0.27 -23.75 -0.75 C-16.93863244 -3.02045585 -6.4998049 -3.14506689 0 0 Z " fill="#4F5C5F" transform="translate(318.75,118.75)"/>
<path d="M0 0 C7.52914163 1.21437768 12.64348277 3.8909312 19 8 C20.87114951 9.13139273 22.74603647 10.25663242 24.625 11.375 C26.08333333 12.25 27.54166667 13.125 29 14 C26 15 26 15 23 14 C23 13.34 23 12.68 23 12 C22.13503906 11.7421875 21.27007812 11.484375 20.37890625 11.21875 C16.91989447 9.97110644 14.07360149 8.40998697 10.9375 6.5 C7.35727517 4.32514013 3.93647828 2.44457918 0 1 C0 0.67 0 0.34 0 0 Z " fill="#80AEB2" transform="translate(273,38)"/>
<path d="M0 0 C6.94490614 0.17683789 11.42262143 1.88155424 17 6 C16.67 6.99 16.34 7.98 16 9 C10.22528931 6.85445532 4.91945148 4.75431824 0 1 C0 0.67 0 0.34 0 0 Z " fill="#111A1C" transform="translate(149,89)"/>
<path d="M0 0 C1.65 0 3.3 0 5 0 C4.67 0.61875 4.34 1.2375 4 1.875 C2.85806765 3.91018344 2.85806765 3.91018344 3 6 C3.515625 6.0825 4.03125 6.165 4.5625 6.25 C8.04455732 7.32140225 10.87200885 9.13523605 14 11 C12 12 12 12 9.72265625 11.328125 C8.84480469 10.97234375 7.96695313 10.6165625 7.0625 10.25 C5.74958984 9.73179688 5.74958984 9.73179688 4.41015625 9.203125 C2.053995 8.02695374 0.59168175 7.08841464 -1 5 C-0.6875 2.3125 -0.6875 2.3125 0 0 Z " fill="#1A3942" transform="translate(124,71)"/>
<path d="M0 0 C0.33 0 0.66 0 1 0 C1.02685095 2.47923801 1.04676547 4.9581884 1.0625 7.4375 C1.07087891 8.14455078 1.07925781 8.85160156 1.08789062 9.58007812 C1.09653588 11.38693559 1.05220011 13.19387603 1 15 C0.67 15.33 0.34 15.66 0 16 C-0.36760731 18.32817964 -0.70241581 20.6618385 -1 23 C-1.66 23 -2.32 23 -3 23 C-3 23.99 -3 24.98 -3 26 C-3.99 26.33 -4.98 26.66 -6 27 C-4.20512821 20.46153846 -4.20512821 20.46153846 -3 17.75 C-1.73983499 14.28454621 -1.29997021 10.8276137 -0.875 7.1875 C-0.78863281 6.49462891 -0.70226562 5.80175781 -0.61328125 5.08789062 C-0.40283919 3.39266294 -0.20058328 1.69642245 0 0 Z " fill="#132D30" transform="translate(312,168)"/>
<path d="M0 0 C8.55220289 3.00910842 16.59309387 6.73719827 24 12 C23.34 12.66 22.68 13.32 22 14 C20.96875 13.319375 19.9375 12.63875 18.875 11.9375 C12.83952014 8.14625995 6.39939667 5.11880708 0 2 C0 1.34 0 0.68 0 0 Z " fill="#658F97" transform="translate(235,17)"/>
<path d="M0 0 C-4.96418369 3.90797439 -9.72794942 6.74814469 -16 8 C-16.66 7.67 -17.32 7.34 -18 7 C-12.83076923 2.07692308 -12.83076923 2.07692308 -8.625 1.6875 C-7.75875 1.790625 -6.8925 1.89375 -6 2 C-6 1.34 -6 0.68 -6 0 C-3.50907189 -1.24546405 -2.58919267 -0.7767578 0 0 Z " fill="#1D2F32" transform="translate(340,76)"/>
<path d="M0 0 C4.39683488 1.19913678 7.09840934 2.4288115 10 6 C10 6.66 10 7.32 10 8 C6.64566891 7.05066101 3.30753495 6.10251165 0 5 C0 3.35 0 1.7 0 0 Z " fill="#0B0E0F" transform="translate(252,53)"/>
<path d="M0 0 C0 0.66 0 1.32 0 2 C0.66 2.33 1.32 2.66 2 3 C-2.56327794 6.53286034 -6.49633208 6.32374517 -12 6 C-8.88481051 2.59901331 -4.74375762 0 0 0 Z " fill="#193439" transform="translate(283,218)"/>
<path d="M0 0 C1.32 0 2.64 0 4 0 C4.33 0.66 4.66 1.32 5 2 C8.0399648 2.69337792 8.0399648 2.69337792 11.5625 3.125 C13.35880859 3.37636719 13.35880859 3.37636719 15.19140625 3.6328125 C16.11824219 3.75398437 17.04507813 3.87515625 18 4 C16.68 4.33 15.36 4.66 14 5 C14 5.66 14 6.32 14 7 C15.98 7 17.96 7 20 7 C20 7.33 20 7.66 20 8 C13.02448238 8.63413797 8.72331415 7.00744876 3 3 C1.97304874 2.02769803 0.96288555 1.03578541 0 0 Z " fill="#1F4145" transform="translate(215,125)"/>
<path d="M0 0 C1.21333996 2.42667993 0.92133898 3.42434343 0.5 6.0625 C0.335 7.361875 0.17 8.66125 0 10 C1.96822886 11.96822886 5.34808709 11.66248381 8 12 C8 12.33 8 12.66 8 13 C6.37536158 13.05395478 4.75021459 13.09277195 3.125 13.125 C2.22007812 13.14820313 1.31515625 13.17140625 0.3828125 13.1953125 C-2 13 -2 13 -4 11 C-4.52981019 7.02642355 -4.31881474 5.45829619 -2 2.125 C-1.34 1.42375 -0.68 0.7225 0 0 Z " fill="#235257" transform="translate(412,143)"/>
<path d="M0 0 C0 0.66 0 1.32 0 2 C0.66 2.66 1.32 3.32 2 4 C-7.41002278 8.59225513 -7.41002278 8.59225513 -12 8 C-4.43243243 0 -4.43243243 0 0 0 Z " fill="#57656D" transform="translate(243,120)"/>
<path d="M0 0 C0.73605469 0.00451172 1.47210937 0.00902344 2.23046875 0.01367188 C4.02868158 0.02534858 5.82685197 0.04327989 7.625 0.0625 C7.625 0.3925 7.625 0.7225 7.625 1.0625 C6.7071875 1.09988281 5.789375 1.13726562 4.84375 1.17578125 C-2.22369819 1.55439455 -7.89834586 2.23632365 -14.375 5.0625 C-16.03172637 5.44216646 -17.69570245 5.80010976 -19.375 6.0625 C-13.68944523 -0.45916577 -8.0886796 -0.0950749 0 0 Z " fill="#214C50" transform="translate(629.375,155.9375)"/>
<path d="M0 0 C5.32568151 1.33142038 10.31628291 3.07553274 15 6 C15.33 6.66 15.66 7.32 16 8 C18.01669827 9.13350534 18.01669827 9.13350534 20 10 C19.01 10.495 19.01 10.495 18 11 C15.375 10.0625 15.375 10.0625 13 9 C13 8.34 13 7.68 13 7 C11.96875 6.7525 10.9375 6.505 9.875 6.25 C5.9853927 5.14886881 3.21683213 3.43223893 0 1 C0 0.67 0 0.34 0 0 Z " fill="#26575F" transform="translate(134,82)"/>
<path d="M0 0 C7.40239645 -0.12886183 14.63959083 0.20274098 22 1 C22 1.33 22 1.66 22 2 C16.39 2 10.78 2 5 2 C5 2.66 5 3.32 5 4 C2.525 3.01 2.525 3.01 0 2 C0 1.34 0 0.68 0 0 Z " fill="#49A5AF" transform="translate(195,85)"/>
<path d="M0 0 C-0.75 1.875 -0.75 1.875 -2 4 C-2.639375 4.268125 -3.27875 4.53625 -3.9375 4.8125 C-7.21006332 6.69670313 -7.71179569 9.52184837 -9 13 C-9.66 13 -10.32 13 -11 13 C-10.68033924 7.72559742 -7.60963971 4.56176651 -4 1 C-2 0 -2 0 0 0 Z " fill="#214A4E" transform="translate(706,139)"/>
<path d="M0 0 C6.88092215 0.30581876 12.2830754 3.27114088 18 7 C18.33 7.66 18.66 8.32 19 9 C13.93001981 8.34580901 9.58009223 6.1453591 5 4 C5 3.34 5 2.68 5 2 C3.35 1.67 1.7 1.34 0 1 C0 0.67 0 0.34 0 0 Z " fill="#20434D" transform="translate(161,97)"/>
<path d="M0 0 C0.66 0.33 1.32 0.66 2 1 C-0.87846866 3.34541891 -3.54323547 4.68313732 -7 6 C-10.17034489 7.52176555 -13.07146759 9.04764506 -16 11 C-16.33 10.34 -16.66 9.68 -17 9 C-16.34 9 -15.68 9 -15 9 C-14.67 8.01 -14.34 7.02 -14 6 C-13.01 6 -12.02 6 -11 6 C-11 5.34 -11 4.68 -11 4 C-10.28972656 3.79503906 -9.57945312 3.59007812 -8.84765625 3.37890625 C-7.92855469 3.10949219 -7.00945312 2.84007812 -6.0625 2.5625 C-5.14597656 2.29566406 -4.22945312 2.02882812 -3.28515625 1.75390625 C-1.0597507 1.20973949 -1.0597507 1.20973949 0 0 Z " fill="#162B30" transform="translate(147,60)"/>
<path d="M0 0 C2.475 0.99 2.475 0.99 5 2 C5.04254356 3.99954746 5.04080783 6.00041636 5 8 C4 9 4 9 0.6875 9.1875 C-3 9 -3 9 -7 7 C-3.7 7 -0.4 7 3 7 C3 5.68 3 4.36 3 3 C2.34 3 1.68 3 1 3 C0.67 2.01 0.34 1.02 0 0 Z " fill="#1F484B" transform="translate(777,138)"/>
<path d="M0 0 C0 0.66 0 1.32 0 2 C-4.95 4.475 -4.95 4.475 -10 7 C-10.66 6.34 -11.32 5.68 -12 5 C-8.86437565 1.16757024 -4.85172875 0 0 0 Z " fill="#20393F" transform="translate(264,129)"/>
<path d="M0 0 C7.45781112 1.20287276 12.72771068 3.83593319 19 8 C18.34 8.66 17.68 9.32 17 10 C16.34 9.34 15.68 8.68 15 8 C13.34444824 7.30619125 11.67584253 6.64325269 10 6 C8.22051575 5.14273021 6.44946276 4.2677278 4.6875 3.375 C3.80449219 2.92898437 2.92148438 2.48296875 2.01171875 2.0234375 C1.34785156 1.68570313 0.68398437 1.34796875 0 1 C0 0.67 0 0.34 0 0 Z " fill="#334F58" transform="translate(136,96)"/>
<path d="M0 0 C2.475 0.99 2.475 0.99 5 2 C5 2.66 5 3.32 5 4 C6.65 4.33 8.3 4.66 10 5 C10 5.66 10 6.32 10 7 C10.78375 7.12375 11.5675 7.2475 12.375 7.375 C15 8 15 8 17 10 C12.76677156 9.37954537 9.47709705 7.89476441 5.6875 5.9375 C4.61886719 5.38964844 3.55023438 4.84179688 2.44921875 4.27734375 C1.64097656 3.85582031 0.83273438 3.43429688 0 3 C0 2.01 0 1.02 0 0 Z " fill="#426A74" transform="translate(209,94)"/>
<path d="M0 0 C0.33 0.66 0.66 1.32 1 2 C2.99571323 2.67939174 4.99594773 3.34561559 7 4 C7.66 4.66 8.32 5.32 9 6 C12.9795702 5.64626043 16.35688886 4.60725491 20 3 C19.0625 4.9375 19.0625 4.9375 17 7 C13.03792953 8.36900809 9.55027527 8.62676145 5.6328125 7.04296875 C3.54358373 5.81247992 1.7229659 4.70888171 0 3 C0 2.01 0 1.02 0 0 Z " fill="#828A84" transform="translate(303,77)"/>
<path d="M0 0 C2.97 0.99 5.94 1.98 9 3 C9 3.66 9 4.32 9 5 C11.97 5.99 14.94 6.98 18 8 C13.58562534 9.10359366 12.08558475 8.72502467 8 7 C7.67 6.34 7.34 5.68 7 5 C6.01 4.505 5.02 4.01 4 3.5 C1 2 1 2 0 0 Z " fill="#2B4F58" transform="translate(155,105)"/>
<path d="M0 0 C2 2 2 2 3 5 C5.01508358 5.73323796 5.01508358 5.73323796 7 6 C7.33 5.34 7.66 4.68 8 4 C8 4.99 8 5.98 8 7 C6.41773035 7.19627391 4.83410729 7.38165538 3.25 7.5625 C2.36828125 7.66691406 1.4865625 7.77132812 0.578125 7.87890625 C-1.88432451 7.99456676 -3.66538064 7.73638695 -6 7 C-6 6.34 -6 5.68 -6 5 C-4.02 4.67 -2.04 4.34 0 4 C0 2.68 0 1.36 0 0 Z " fill="#44656B" transform="translate(215,57)"/>
<path d="M0 0 C3 1 3 1 4.25 3.1875 C5.12860506 6.48226898 4.76557916 8.70800962 4 12 C4.66 12 5.32 12 6 12 C5.67 12.99 5.34 13.98 5 15 C5 14.34 5 13.68 5 13 C4.34 13 3.68 13 3 13 C2.49242138 11.58603098 1.99425075 10.16868271 1.5 8.75 C1.08234375 7.56664062 1.08234375 7.56664062 0.65625 6.359375 C0 4 0 4 0 0 Z " fill="#101E22" transform="translate(211,44)"/>
<path d="M0 0 C2.77170395 0.11386459 5.54178046 0.24060778 8.3125 0.375 C9.09818359 0.4059375 9.88386719 0.436875 10.69335938 0.46875 C11.8293457 0.52675781 11.8293457 0.52675781 12.98828125 0.5859375 C14.03302612 0.63306885 14.03302612 0.63306885 15.09887695 0.68115234 C17 1 17 1 20 3 C15.81162167 4.12371126 12.5625616 3.80395886 8.3125 3.0625 C4.1769362 2.2924276 4.1769362 2.2924276 0 2 C0 1.34 0 0.68 0 0 Z " fill="#16292F" transform="translate(155,56)"/>
<path d="M0 0 C1.29409592 0.45142881 2.58521059 0.91141021 3.875 1.375 C4.95394531 1.75785156 4.95394531 1.75785156 6.0546875 2.1484375 C8 3 8 3 10 5 C10.1953125 8.2578125 10.1953125 8.2578125 10.125 12.125 C10.10695312 13.40632812 10.08890625 14.68765625 10.0703125 16.0078125 C10.04710937 16.99523437 10.02390625 17.98265625 10 19 C9.67 19 9.34 19 9 19 C8.67 14.71 8.34 10.42 8 6 C7.34 6 6.68 6 6 6 C5 5 4 4 3 3 C2.01 2.67 1.02 2.34 0 2 C0 1.34 0 0.68 0 0 Z " fill="#17323B" transform="translate(213,136)"/>
<path d="M0 0 C0.66 0.33 1.32 0.66 2 1 C2 2.98 2 4.96 2 7 C-0.31 7.33 -2.62 7.66 -5 8 C-3.62845496 5.04590299 -2.01136276 2.55991624 0 0 Z " fill="#070908" transform="translate(263,254)"/>
<path d="M0 0 C0.66 0 1.32 0 2 0 C2.53394179 1.4117783 3.05165104 2.82970244 3.5625 4.25 C3.85253906 5.03890625 4.14257812 5.8278125 4.44140625 6.640625 C5.04522837 9.19103452 4.8473932 10.55322229 4 13 C3.34 12.67 2.68 12.34 2 12 C2 10.02 2 8.04 2 6 C1.34 6 0.68 6 0 6 C0 4.02 0 2.04 0 0 Z " fill="#0F1216" transform="translate(206,30)"/>
<path d="M0 0 C0 3 0 3 -2.1171875 5.26171875 C-3.02726562 6.06222656 -3.93734375 6.86273438 -4.875 7.6875 C-6.23238281 8.89986328 -6.23238281 8.89986328 -7.6171875 10.13671875 C-10 12 -10 12 -12 12 C-10.9024777 9.00675737 -10.32317108 8.15389099 -7.375 6.75 C-6.59125 6.5025 -5.8075 6.255 -5 6 C-5 5.34 -5 4.68 -5 4 C-4.34 4 -3.68 4 -3 4 C-3 3.34 -3 2.68 -3 2 C-2.01 1.34 -1.02 0.68 0 0 Z " fill="#12252D" transform="translate(308,231)"/>
<path d="M0 0 C1.32 0 2.64 0 4 0 C3.835 0.763125 3.67 1.52625 3.5 2.3125 C2.90854604 5.03596236 2.90854604 5.03596236 3 8 C2.34 8 1.68 8 1 8 C1 9.98 1 11.96 1 14 C0.67 14 0.34 14 0 14 C0 9.38 0 4.76 0 0 Z " fill="#070D0F" transform="translate(161,162)"/>
<path d="M0 0 C5.06998019 0.65419099 9.41990777 2.8546409 14 5 C10.93109813 6.53445094 8.29905734 5.54984289 5 5 C4.67 4.01 4.34 3.02 4 2 C2.68 2 1.36 2 0 2 C0 1.34 0 0.68 0 0 Z " fill="#171B20" transform="translate(215,123)"/>
<path d="M0 0 C0.721875 0.144375 1.44375 0.28875 2.1875 0.4375 C3.5796875 0.7159375 3.5796875 0.7159375 5 1 C6.66666667 1.33333333 8.33333333 1.66666667 10 2 C10.33 3.65 10.66 5.3 11 7 C9.35 6.67 7.7 6.34 6 6 C6 5.34 6 4.68 6 4 C5.195625 3.71125 4.39125 3.4225 3.5625 3.125 C1 2 1 2 0 0 Z " fill="#31525C" transform="translate(127,118)"/>
<path d="M0 0 C-3.96 1.98 -7.92 3.96 -12 6 C-12.33 5.34 -12.66 4.68 -13 4 C-12.34 4 -11.68 4 -11 4 C-11 3.34 -11 2.68 -11 2 C-4.5 -1.125 -4.5 -1.125 0 0 Z " fill="#2C505C" transform="translate(281,152)"/>
<path d="M0 0 C6.15234375 -0.09765625 6.15234375 -0.09765625 8 0 C9 1 9 1 9.09765625 3.06640625 C9.08605469 3.89011719 9.07445312 4.71382812 9.0625 5.5625 C9.05347656 6.38878906 9.04445313 7.21507812 9.03515625 8.06640625 C9.02355469 8.70449219 9.01195312 9.34257812 9 10 C8.34 10 7.68 10 7 10 C6.67 7.03 6.34 4.06 6 1 C4.02 1 2.04 1 0 1 C0 0.67 0 0.34 0 0 Z " fill="#1B4044" transform="translate(665,127)"/>
<path d="M0 0 C5.10436996 1.22504879 8.75006878 2.76195717 13 6 C13.33 6.66 13.66 7.32 14 8 C8.76481294 6.56032356 4.36973991 4.18303389 0 1 C0 0.67 0 0.34 0 0 Z " fill="#719FA4" transform="translate(259,30)"/>
<path d="M0 0 C0.33 0.66 0.66 1.32 1 2 C-8.22551253 7.74031891 -8.22551253 7.74031891 -14 7 C-11 5 -11 5 -7 5 C-7 4.34 -7 3.68 -7 3 C-4.69 2.01 -2.38 1.02 0 0 Z " fill="#40969D" transform="translate(499,174)"/>
<path d="M0 0 C4.75 0.75 4.75 0.75 7 3 C5.02 3.33 3.04 3.66 1 4 C0.67 5.65 0.34 7.3 0 9 C-0.99 8.67 -1.98 8.34 -3 8 C-1.125 2.25 -1.125 2.25 0 0 Z " fill="#214D54" transform="translate(395,169)"/>
<path d="M0 0 C1.98 0.99 1.98 0.99 4 2 C3.34 2 2.68 2 2 2 C2.515625 3.093125 3.03125 4.18625 3.5625 5.3125 C5 9 5 9 4 12 C1.95780294 10.30820672 1.08206694 9.36272334 0.48828125 6.73828125 C0.43027344 5.93777344 0.37226563 5.13726562 0.3125 4.3125 C0.24675781 3.50425781 0.18101562 2.69601563 0.11328125 1.86328125 C0.07589844 1.24839844 0.03851563 0.63351563 0 0 Z " fill="#67B3BC" transform="translate(252,59)"/>
<path d="M0 0 C1.32 0 2.64 0 4 0 C4.33 3.3 4.66 6.6 5 10 C1.82523514 6.82523514 1.75618891 6.10502552 1 2 C0.34 1.67 -0.32 1.34 -1 1 C-0.67 0.67 -0.34 0.34 0 0 Z " fill="#3B4041" transform="translate(207,28)"/>
<path d="M0 0 C0.66 0 1.32 0 2 0 C0.33248852 3.94139078 -2.22710649 6.7892812 -5 10 C-5.6875 8.1875 -5.6875 8.1875 -6 6 C-4.6875 4.25 -4.6875 4.25 -3 3 C-2.34 3 -1.68 3 -1 3 C-0.67 2.01 -0.34 1.02 0 0 Z " fill="#172C37" transform="translate(318,220)"/>
<path d="M0 0 C0.33 0.66 0.66 1.32 1 2 C-0.97764782 6.06516496 -3.7373124 8.91367389 -7 12 C-6.67 10.02 -6.34 8.04 -6 6 C-5.01 6 -4.02 6 -3 6 C-3 5.01 -3 4.02 -3 3 C-2.34 3 -1.68 3 -1 3 C-0.67 2.01 -0.34 1.02 0 0 Z " fill="#285E62" transform="translate(507,162)"/>
<path d="M0 0 C0.57234375 0.21527344 1.1446875 0.43054688 1.734375 0.65234375 C0.30425527 1.51881042 -1.13503119 2.37016204 -2.578125 3.21484375 C-3.77888672 3.92833984 -3.77888672 3.92833984 -5.00390625 4.65625 C-7.265625 5.65234375 -7.265625 5.65234375 -10.265625 4.65234375 C-9.02618224 3.78292881 -7.77355441 2.93228918 -6.515625 2.08984375 C-5.81953125 1.61417969 -5.1234375 1.13851562 -4.40625 0.6484375 C-2.265625 -0.34765625 -2.265625 -0.34765625 0 0 Z " fill="#647071" transform="translate(275.265625,125.34765625)"/>
<path d="M0 0 C6.435 2.97 6.435 2.97 13 6 C9.29218328 7.23593891 8.32489747 6.5678132 4.8125 5.0625 C3.91144531 4.68222656 3.01039063 4.30195312 2.08203125 3.91015625 C1.39496094 3.60980469 0.70789063 3.30945313 0 3 C0 2.01 0 1.02 0 0 Z " fill="#203F45" transform="translate(184,120)"/>
<path d="M0 0 C0.4125 0.45375 0.825 0.9075 1.25 1.375 C3.06408095 3.05950374 4.75285627 3.99265971 7 5 C6.01 5.495 6.01 5.495 5 6 C4.34 5.67 3.68 5.34 3 5 C3.33 7.31 3.66 9.62 4 12 C3.34 11.67 2.68 11.34 2 11 C2 9.02 2 7.04 2 5 C1.34 5 0.68 5 0 5 C0 3.35 0 1.7 0 0 Z " fill="#64787A" transform="translate(249,54)"/>
<path d="M0 0 C2.31 0.33 4.62 0.66 7 1 C7.33 2.32 7.66 3.64 8 5 C4.5625 4.1875 4.5625 4.1875 1 3 C0.67 2.01 0.34 1.02 0 0 Z " fill="#284D58" transform="translate(140,125)"/>
<path d="M0 0 C-1.57533086 0.86883706 -3.16064509 1.71959068 -4.75 2.5625 C-5.63171875 3.03816406 -6.5134375 3.51382812 -7.421875 4.00390625 C-10.20701188 5.07998186 -11.26980214 5.06528748 -14 4 C-12 3 -10 2 -8 1 C-6.948125 0.38125 -6.948125 0.38125 -5.875 -0.25 C-3.51690176 -1.1932393 -2.3862897 -0.69311319 0 0 Z " fill="#0E1E21" transform="translate(265,262)"/>
<path d="M0 0 C0.99 0.33 1.98 0.66 3 1 C3 4.63 3 8.26 3 12 C2.01 12.495 2.01 12.495 1 13 C1.03480469 12.06027344 1.03480469 12.06027344 1.0703125 11.1015625 C1.08835937 10.28429687 1.10640625 9.46703125 1.125 8.625 C1.14820313 7.81289062 1.17140625 7.00078125 1.1953125 6.1640625 C1.21370051 3.78657757 1.21370051 3.78657757 -1 2 C-0.67 1.34 -0.34 0.68 0 0 Z " fill="#11282B" transform="translate(781,162)"/>
<path d="M0 0 C6.16456476 0.37742233 9.17375515 2.15870308 14 6 C13.01 6.495 13.01 6.495 12 7 C9.1796875 5.78515625 9.1796875 5.78515625 5.875 4.0625 C4.77929688 3.49660156 3.68359375 2.93070313 2.5546875 2.34765625 C1.71164062 1.90292969 0.86859375 1.45820312 0 1 C0 0.67 0 0.34 0 0 Z " fill="#8BBBBE" transform="translate(309,57)"/>
<path d="M0 0 C3 1 3 1 4.6875 4.375 C6 8 6 8 6 11 C4.35 10.67 2.7 10.34 1 10 C1.99 9.67 2.98 9.34 4 9 C3.34 8.01 2.68 7.02 2 6 C2 4.68 2 3.36 2 2 C1.34 2 0.68 2 0 2 C0 1.34 0 0.68 0 0 Z " fill="#39838B" transform="translate(184,212)"/>
<path d="M0 0 C2.4375 0.8125 2.4375 0.8125 5 2 C5.33 2.99 5.66 3.98 6 5 C5.34 5 4.68 5 4 5 C3.67 6.32 3.34 7.64 3 9 C2.01 6.03 1.02 3.06 0 0 Z " fill="#10181A" transform="translate(307,150)"/>
<path d="M0 0 C0.33 1.32 0.66 2.64 1 4 C-0.3125 5.75 -0.3125 5.75 -2 7 C-2.66 7 -3.32 7 -4 7 C-4 7.66 -4 8.32 -4 9 C-4.66 8.67 -5.32 8.34 -6 8 C-4.02 5.36 -2.04 2.72 0 0 Z " fill="#1A3C3F" transform="translate(420,134)"/>
<path d="M0 0 C0.33 0.66 0.66 1.32 1 2 C1.763125 1.649375 2.52625 1.29875 3.3125 0.9375 C6 0 6 0 9 1 C1.71428571 4.42857143 1.71428571 4.42857143 -3 4 C-2.67 3.01 -2.34 2.02 -2 1 C-1.34 0.67 -0.68 0.34 0 0 Z " fill="#545F5E" transform="translate(282,120)"/>
<path d="M0 0 C0 0.66 0 1.32 0 2 C-1.28788008 2.53012738 -2.58046678 3.0488329 -3.875 3.5625 C-4.95394531 3.99755859 -4.95394531 3.99755859 -6.0546875 4.44140625 C-8 5 -8 5 -10 4 C-6.64877401 1.34213111 -4.39380802 0 0 0 Z " fill="#0D1C1D" transform="translate(332,79)"/>
<path d="M0 0 C1.65 0 3.3 0 5 0 C4 2 3 4 2 6 C1.01 5.67 0.02 5.34 -1 5 C-0.67 3.35 -0.34 1.7 0 0 Z " fill="#152B33" transform="translate(124,71)"/>
<path d="M0 0 C0.33 0.99 0.66 1.98 1 3 C2.32 3 3.64 3 5 3 C5.33 4.65 5.66 6.3 6 8 C1.125 6.125 1.125 6.125 0 5 C-0.04063832 3.33382885 -0.042721 1.66611905 0 0 Z " fill="#14272F" transform="translate(118,211)"/>
<path d="M0 0 C0.763125 0.20625 1.52625 0.4125 2.3125 0.625 C2.6425 1.615 2.9725 2.605 3.3125 3.625 C-1.1425 2.635 -1.1425 2.635 -5.6875 1.625 C-2.6875 -0.375 -2.6875 -0.375 0 0 Z " fill="#152225" transform="translate(195.6875,111.375)"/>
<path d="M0 0 C0.99 0 1.98 0 3 0 C1.8141763 3.37503669 0.72426311 5.64722731 -2 8 C-2.125 5.125 -2.125 5.125 -2 2 C-1.34 1.34 -0.68 0.68 0 0 Z " fill="#20444E" transform="translate(324,211)"/>
<path d="M0 0 C4.99911924 0.47610659 7.97832683 2.03162219 12 5 C10 6 10 6 6.875 5.0625 C5.92625 4.711875 4.9775 4.36125 4 4 C4 3.34 4 2.68 4 2 C2.68 1.34 1.36 0.68 0 0 Z " fill="#285C63" transform="translate(133,193)"/>
<path d="M0 0 C1.485 0.99 1.485 0.99 3 2 C3.40843923 4.71203652 3.13336867 7.2437142 3 10 C0.64551835 7.44931155 0.01672076 6.28982642 -0.1875 2.75 C-0.125625 1.8425 -0.06375 0.935 0 0 Z " fill="#395961" transform="translate(336,142)"/>
<path d="M0 0 C0.66 0.33 1.32 0.66 2 1 C0.92892883 1.86949317 -0.15745944 2.72014205 -1.25 3.5625 C-1.85328125 4.03816406 -2.4565625 4.51382813 -3.078125 5.00390625 C-5 6 -5 6 -7.234375 5.65234375 C-7.81703125 5.43707031 -8.3996875 5.22179687 -9 5 C-7.54735962 4.1361871 -6.0876837 3.28419546 -4.625 2.4375 C-3.40683594 1.72400391 -3.40683594 1.72400391 -2.1640625 0.99609375 C-1.44992187 0.66738281 -0.73578125 0.33867187 0 0 Z " fill="#2F3536" transform="translate(261,134)"/>
<path d="M0 0 C3.45925163 1.2491742 6.14693203 2.67527795 9 5 C6.125 5.125 6.125 5.125 3 5 C1 3 1 3 0 0 Z " fill="#1E3D49" transform="translate(204,131)"/>
<path d="M0 0 C6.625 0.75 6.625 0.75 10 3 C10 3.66 10 4.32 10 5 C8.51800098 4.55090939 7.03944764 4.09043436 5.5625 3.625 C4.73878906 3.36976563 3.91507813 3.11453125 3.06640625 2.8515625 C1 2 1 2 0 0 Z " fill="#244751" transform="translate(148,130)"/>
<path d="M0 0 C-1 3 -1 3 -2.75 4.1875 C-5.29960574 5.10819096 -7.30923081 5.14948718 -10 5 C-8.28489314 1.56978628 -3.75681361 0 0 0 Z " fill="#6A787C" transform="translate(241,123)"/>
<path d="M0 0 C0 0.99 0 1.98 0 3 C-1.65 3.66 -3.3 4.32 -5 5 C-4.67 4.01 -4.34 3.02 -4 2 C-4.99 1.67 -5.98 1.34 -7 1 C-4.53721199 -0.231394 -2.7204945 -0.07159196 0 0 Z " fill="#264B52" transform="translate(255,120)"/>
<path d="M0 0 C5.75 1.625 5.75 1.625 8 5 C6.35 5.33 4.7 5.66 3 6 C2.01 4.02 1.02 2.04 0 0 Z " fill="#A0B8B6" transform="translate(332,69)"/>
<path d="M0 0 C-2.35968744 2.09749995 -3.54616994 2.96905704 -6.75 3.1875 C-7.86375 3.0946875 -7.86375 3.0946875 -9 3 C-9 2.01 -9 1.02 -9 0 C-2.25 -1.125 -2.25 -1.125 0 0 Z " fill="#16333D" transform="translate(182,165)"/>
<path d="M0 0 C2.76276177 0.52268466 5.3260876 1.10869587 8 2 C8.33 2.99 8.66 3.98 9 5 C2.25 3.375 2.25 3.375 0 0 Z " fill="#244E58" transform="translate(158,135)"/>
<path d="M0 0 C2.97 0.495 2.97 0.495 6 1 C6.33 2.32 6.66 3.64 7 5 C4.03824877 4.38722388 2.61941217 3.74627478 0 2 C0 1.34 0 0.68 0 0 Z " fill="#121518" transform="translate(207,118)"/>
<path d="M0 0 C0 0.66 0 1.32 0 2 C-2.90600261 3.25664978 -4.79604584 4 -8 4 C-8 3.34 -8 2.68 -8 2 C-5.09399739 0.74335022 -3.20395416 0 0 0 Z " fill="#17292B" transform="translate(251,136)"/>
<path d="M0 0 C-4.625 3 -4.625 3 -8 3 C-7.67 2.01 -7.34 1.02 -7 0 C-3.86650268 -1.04449911 -3.01031744 -0.93423645 0 0 Z " fill="#757F7B" transform="translate(291,119)"/>
<path d="M0 0 C7.57142857 1.85714286 7.57142857 1.85714286 10 5 C6.28111761 4.49287967 3.26545761 3.88391785 0 2 C0 1.34 0 0.68 0 0 Z " fill="#244048" transform="translate(173,115)"/>
<path d="M0 0 C0.33 0 0.66 0 1 0 C1.36237263 1.62318979 1.71465157 3.2486358 2.0625 4.875 C2.25972656 5.77992187 2.45695313 6.68484375 2.66015625 7.6171875 C3 10 3 10 2 12 C1.34 12 0.68 12 0 12 C0 8.04 0 4.08 0 0 Z " fill="#2D4044" transform="translate(127,106)"/>
<path d="M0 0 C0 0.99 0 1.98 0 3 C-1.98 3 -3.96 3 -6 3 C-6.33 2.34 -6.66 1.68 -7 1 C-4.53721199 -0.231394 -2.7204945 -0.07159196 0 0 Z " fill="#09070B" transform="translate(262,88)"/>
<path d="M0 0 C0.66 0.66 1.32 1.32 2 2 C1.67 2.99 1.34 3.98 1 5 C-1.31 4.34 -3.62 3.68 -6 3 C-6 2.34 -6 1.68 -6 1 C-3.03 1.495 -3.03 1.495 0 2 C0 1.34 0 0.68 0 0 Z " fill="#20464A" transform="translate(310,84)"/>
<path d="M0 0 C1.65 0 3.3 0 5 0 C3.68 2.31 2.36 4.62 1 7 C0.67 7 0.34 7 0 7 C0 4.69 0 2.38 0 0 Z " fill="#0C181A" transform="translate(270,224)"/>
<path d="M0 0 C0.928125 0.0825 1.85625 0.165 2.8125 0.25 C-0.12578597 2.75298434 -2.36652761 3.71930939 -6.1875 4.25 C-4.36434338 1.00883268 -3.82500054 0.30000004 0 0 Z " fill="#163437" transform="translate(616.1875,157.75)"/>
<path d="M0 0 C0.66 0 1.32 0 2 0 C1.67 1.65 1.34 3.3 1 5 C0.01 5.33 -0.98 5.66 -2 6 C-1.125 1.125 -1.125 1.125 0 0 Z " fill="#183A3D" transform="translate(697,146)"/>
<path d="M0 0 C-2 2 -2 2 -5.125 2.125 C-6.548125 2.063125 -6.548125 2.063125 -8 2 C-8 1.34 -8 0.68 -8 0 C-4.94736336 -0.98120464 -3.05263664 -0.98120464 0 0 Z " fill="#0A1419" transform="translate(237,130)"/>
<path d="M0 0 C0.66 0.33 1.32 0.66 2 1 C-0.06756277 3.7972908 -1.14440371 4.02692273 -4.6875 4.6875 C-5.780625 4.790625 -6.87375 4.89375 -8 5 C-5.56159764 2.56159764 -3.14759102 1.37707107 0 0 Z " fill="#A4AFAE" transform="translate(321,80)"/>
<path d="M0 0 C2.64 0.99 5.28 1.98 8 3 C8 3.66 8 4.32 8 5 C4.62537285 4.45276317 2.91765 3.9451 0 2 C0 1.34 0 0.68 0 0 Z " fill="#5D8188" transform="translate(235,17)"/>
</svg>
